<?xml version="1.0" standalone="no"?>
<!DOCTYPE svg PUBLIC "-//W3C//DTD SVG 1.1//EN" "http://www.w3.org/Graphics/SVG/1.1/DTD/svg11.dtd" >
<svg xmlns="http://www.w3.org/2000/svg">
<metadata></metadata>
<defs>
<font id="coinyregular" horiz-adv-x="1277" >
<font-face units-per-em="2048" ascent="1638" descent="-410" />
<missing-glyph horiz-adv-x="552" />
<glyph horiz-adv-x="0" />
<glyph unicode="&#xd;" horiz-adv-x="681" />
<glyph unicode=" "  horiz-adv-x="552" />
<glyph unicode="&#x09;" horiz-adv-x="552" />
<glyph unicode="&#xa0;" horiz-adv-x="552" />
<glyph unicode="!" horiz-adv-x="714" d="M115 1210q0 -98 41 -331.5t41 -331.5q0 -88 34.5 -128t120.5 -40q88 0 127 39t39 123q0 55 8.5 127.5t20.5 144.5t24.5 143.5t20.5 145.5t8 131q0 96 -57.5 139t-196.5 43q-68 0 -114 -13t-71.5 -42t-35.5 -64.5t-10 -85.5zM129 141q0 82 64.5 119t160.5 37 q244 0 244 -156q0 -76 -64.5 -115.5t-179.5 -39.5q-106 0 -165.5 43.5t-59.5 111.5z" />
<glyph unicode="&#x22;" horiz-adv-x="1202" d="M108 846q0 -33 21.5 -54.5t58.5 -21.5q39 0 90 16.5t107.5 51t104.5 82t79 117t31 147.5q0 104 -70 149t-180 45q-106 0 -163.5 -42.5t-57.5 -112.5q0 -80 62 -118t159 -38q-33 -53 -76 -85t-135 -77q-31 -14 -31 -59zM639 846q0 -33 21.5 -54.5t58.5 -21.5q39 0 90 16.5 t107.5 51t104.5 82t79 117t31 147.5q0 104 -70 149t-180 45q-106 0 -163.5 -42.5t-57.5 -112.5q0 -80 62 -118t159 -38q-33 -53 -76 -85t-135 -77q-31 -14 -31 -59z" />
<glyph unicode="#" horiz-adv-x="1439" d="M35 293q0 145 178 145h43l33 113h-17q-166 0 -166 137q0 145 179 146h84l12 45q18 66 57 88t113 22q55 0 96 -34.5t41 -88.5q0 -16 -4 -32h227l13 43q18 66 58 89t114 23q55 0 96 -35.5t41 -89.5q0 -14 -4 -30h31q72 0 112.5 -36t40.5 -104q0 -143 -176 -143h-86 l-33 -113h62q47 0 81.5 -16t53 -48t18.5 -75q0 -143 -176 -143h-117l-12 -43q-33 -125 -156 -125q-51 0 -86.5 17.5t-51 45t-15.5 64.5q0 10 4 41h-227l-11 -41q-35 -125 -157 -125q-76 0 -115 34.5t-39 92.5q0 8 4 39q-143 8 -143 137zM565 430h240l35 127h-240z" />
<glyph unicode="$" horiz-adv-x="1474" d="M115 330q0 45 29.5 76.5t86.5 31.5q43 0 207 -54t264 -54q92 0 93 63q0 18 -7.5 33.5t-25 31t-39 29t-59 34t-75.5 41t-99.5 53t-118.5 65.5q-111 63 -172.5 162.5t-61.5 185.5q0 137 100.5 236.5t288.5 134.5l2 65q2 92 53.5 137.5t139.5 45.5q94 0 143 -33t49 -131v-84 q176 -35 289 -121t113 -174q0 -31 -13.5 -52.5t-33 -30.5t-41.5 -9q-37 0 -111 37.5t-164 75.5t-166 38q-121 0 -120 -98q0 -31 19.5 -58.5t62.5 -57t83.5 -52.5t112.5 -60.5t121 -66.5q158 -90 221.5 -172t63.5 -188q0 -365 -428 -416v-68q0 -119 -47.5 -163t-149.5 -44 q-98 0 -144 43t-46 148v104q-123 31 -221.5 86.5t-148.5 115.5t-50 114z" />
<glyph unicode="%" horiz-adv-x="1828" d="M37 1065q0 170 83 241.5t230 71.5q70 0 125 -17.5t97 -54t66 -98t24 -143.5q0 -160 -85.5 -232.5t-226.5 -72.5t-227 72.5t-86 232.5zM301 1065q0 -43 13.5 -76t35.5 -33q25 0 36 32t11 77q0 14 -1 27.5t-4 27t-7 24.5t-8 19t-11.5 13.5t-15.5 5.5q-23 0 -36 -36t-13 -81 zM455 168q0 33 22 88l463 1124q25 57 62.5 84t101.5 27q98 0 187 -57.5t89 -133.5q0 -31 -16 -73l-467 -1125q-29 -72 -67.5 -104.5t-102.5 -32.5q-98 0 -185 62.5t-87 140.5zM1143 279q0 172 84 243.5t231 71.5q141 0 225 -77t84 -238q0 -160 -84 -232t-225 -72 q-143 0 -229 72t-86 232zM1407 279q0 -43 13.5 -75t37.5 -32q14 0 25.5 16.5t15.5 40t4 50.5q0 31 -5 56t-15 42.5t-25 17.5q-25 0 -38 -35.5t-13 -80.5z" />
<glyph unicode="&#x26;" horiz-adv-x="1716" d="M25 430q0 137 78.5 238.5t199.5 150.5q-117 108 -117 262q0 104 71 179t182.5 108t254.5 33q115 0 211 -21.5t164 -62.5t105.5 -101.5t37.5 -134.5q0 -190 -170 -309q104 -129 220 -260q37 76 77 164q18 43 48 56t86.5 13t90 -28.5t33.5 -81.5q0 -70 -33.5 -172.5 t-76.5 -175.5q16 -31 62 -65t81 -61.5t35 -56.5q0 -41 -33 -79.5t-112 -38.5q-74 0 -125.5 16t-99.5 48t-58 36q-289 -100 -563 -100q-145 0 -260 29.5t-185.5 74.5t-119 105.5t-66.5 119t-18 115.5zM489 463q0 -51 28 -90t74 -58.5t101 -19.5q78 0 144 20l-252 269 q-39 -18 -67 -51t-28 -70zM608 1081q0 -61 23.5 -107t66.5 -46t65.5 46t22.5 109q0 39 -9 69t-29.5 47.5t-49.5 17.5q-43 0 -66.5 -38t-23.5 -98z" />
<glyph unicode="'" horiz-adv-x="675" d="M88 846q0 -33 21.5 -54.5t58.5 -21.5q39 0 90 16.5t107.5 51t104.5 82t79 117t31 147.5q0 104 -70 149t-180 45q-106 0 -163.5 -42.5t-57.5 -112.5q0 -80 62 -118t159 -38q-33 -53 -76 -85t-135 -77q-31 -14 -31 -59z" />
<glyph unicode="(" horiz-adv-x="888" d="M133 655q0 205 52.5 392.5t131 311.5t168.5 197.5t168 73.5q45 0 76 -30.5t31 -88.5q0 -59 -35 -190t-69.5 -310.5t-34.5 -353.5q0 -139 21.5 -283.5t48 -240.5t48 -190.5t21.5 -145.5q0 -39 -15.5 -66.5t-39 -38.5t-52.5 -11q-80 0 -169 73.5t-167.5 197.5t-131 311.5 t-52.5 391.5z" />
<glyph unicode=")" horiz-adv-x="837" d="M158 -203q0 -39 15.5 -66.5t39 -38.5t52.5 -11q80 0 169 73.5t167.5 197.5t131 311.5t52.5 391.5q0 205 -52.5 392.5t-131 311.5t-168.5 197.5t-168 73.5q-45 0 -76 -30.5t-31 -88.5q0 -59 35 -190t69.5 -310.5t34.5 -353.5q0 -139 -21.5 -283.5t-48 -240.5t-48 -190.5 t-21.5 -145.5z" />
<glyph unicode="*" horiz-adv-x="1163" d="M61 1339q0 70 42 117t96 47q45 0 114 -24l121 -43v94q0 45 5 77.5t17.5 56.5t32 37t45 19t60.5 6q76 0 106.5 -51t30.5 -164v-75l121 43q70 25 113 24q35 0 66.5 -20.5t51 -59.5t19.5 -85t-41 -80.5t-127 -65.5l-80 -29l92 -129q45 -66 45 -114q0 -53 -51 -99.5 t-106 -46.5q-68 0 -129 84l-125 180l-127 -180q-59 -84 -127 -84q-55 0 -106.5 46t-51.5 97.5t45 116.5l92 131l-76 27q-86 31 -127 65.5t-41 81.5z" />
<glyph unicode="+" horiz-adv-x="1130" d="M86 475q0 78 40 123t148 45h117v96q0 121 40 168t138 47q55 0 88 -25.5t47.5 -76.5t14.5 -135v-74h100q121 0 169 -40t48 -136q0 -84 -56 -117t-181 -33h-80v-129q0 -184 -158 -184q-170 0 -170 199v114h-123q-182 0 -182 158z" />
<glyph unicode="," horiz-adv-x="636" d="M61 -236q0 43 31 58q92 45 135 77.5t76 86.5q-96 0 -158.5 36.5t-62.5 118.5q0 45 24.5 80t74.5 55.5t122 20.5q111 0 180.5 -45t69.5 -152q0 -78 -30.5 -147.5t-79 -116.5t-104.5 -81t-107.5 -50t-90.5 -16q-37 0 -58.5 21.5t-21.5 53.5z" />
<glyph unicode="-" horiz-adv-x="804" d="M72 557q0 152 180 152h285q74 0 116.5 -15.5t61 -50.5t18.5 -94q0 -76 -51 -105.5t-164 -29.5h-280q-166 0 -166 143z" />
<glyph unicode="." horiz-adv-x="579" d="M61 141q0 -82 63.5 -118.5t160.5 -36.5q109 0 166 34.5t57 120.5q0 156 -223 156q-106 0 -165 -43t-59 -113z" />
<glyph unicode="/" horiz-adv-x="1118" d="M152 1202q0 -31 22 -86l416 -1040q25 -57 63.5 -84t100.5 -27q98 0 188 58.5t90 132.5q0 31 -16 73l-422 1041q-31 70 -70 102.5t-102 32.5q-96 0 -183 -62.5t-87 -140.5z" />
<glyph unicode="0" horiz-adv-x="1351" d="M72 668q0 197 45 336t129 216.5t188.5 112.5t241.5 35q133 0 239.5 -40t187.5 -122t125 -218t44 -320t-45 -318.5t-128 -212.5t-188.5 -113.5t-234.5 -35.5q-131 0 -236.5 35.5t-190.5 113.5t-131 213t-46 318zM522 668q0 -152 40 -266.5t114 -114.5t110.5 112.5 t36.5 269t-39 277.5t-108 121q-49 0 -85 -61.5t-52.5 -150.5t-16.5 -187z" />
<glyph unicode="1" horiz-adv-x="888" d="M61 1212q0 68 58.5 112t163.5 44q41 0 115.5 -1t105.5 -1q152 0 204 -50t52 -175l2 -832q0 -166 -59.5 -236.5t-180.5 -70.5q-80 0 -129 24.5t-74.5 90t-27.5 176.5l-4 764q-98 0 -162 35.5t-64 119.5z" />
<glyph unicode="2" horiz-adv-x="1191" d="M66 188q0 41 8 71t30.5 58.5t61.5 55.5q111 74 174 119t123.5 95t89.5 86t52.5 81t30.5 90t7 106q0 115 -72 115q-78 0 -77 -135q0 -76 -49.5 -98.5t-145.5 -22.5q-131 0 -177 57.5t-46 190.5t126 222t351 89q557 0 557 -424q0 -98 -22.5 -179t-55.5 -135.5t-89 -103.5 t-105 -79.5t-121 -65.5h227q172 0 172 -193q0 -109 -54 -154.5t-194 -45.5h-555q-143 0 -195 37.5t-52 162.5z" />
<glyph unicode="3" horiz-adv-x="1200" d="M61 231q0 102 41 140.5t115 38.5q37 0 115 -8.5t119 -8.5q223 0 223 82q0 55 -43 76.5t-162 21.5t-168 31t-49 115q0 127 168 127q109 0 161 10t60 23.5t8 44.5q0 100 -186 100q-39 0 -105.5 -7t-97.5 -7q-147 0 -147 176q0 182 426 182q276 0 413.5 -90t137.5 -236 q0 -203 -177 -323q119 -63 167 -132t48 -198q0 -178 -140 -289.5t-376 -111.5q-295 0 -423 60.5t-128 182.5z" />
<glyph unicode="4" horiz-adv-x="1392" d="M61 528q0 -100 64.5 -163.5t198.5 -63.5h378q0 -166 55.5 -232.5t176.5 -66.5q119 0 178 69.5t59 231.5q84 6 119 36t35 107q0 51 -13.5 82t-47 48.5t-93.5 23.5v541q0 125 -53 175t-203 50q-33 0 -86 1t-92 1q-186 0 -293 -156q-215 -315 -327 -491q-55 -86 -56 -193z M432 592l275 436l-7 -436h-268z" />
<glyph unicode="5" horiz-adv-x="1218" d="M84 211q0 -113 102.5 -168t348.5 -55q305 0 453.5 129t148.5 362q0 133 -54.5 229.5t-160.5 139.5q-84 33 -168 44t-207 11l4 133h420q33 0 56.5 8.5t38.5 27t21.5 46t6.5 66.5q0 109 -35 145.5t-131 36.5h-582q-90 0 -142 -20.5t-72.5 -56.5t-20.5 -93v-367 q0 -98 14 -146t51 -68.5t111 -20.5q385 0 385 -115q0 -63 -45 -87.5t-140 -24.5q-41 0 -133 22.5t-129 22.5q-141 0 -141 -201z" />
<glyph unicode="6" horiz-adv-x="1245" d="M68 635q0 168 38.5 301t120.5 235.5t220.5 158.5t326.5 56q164 0 276.5 -70.5t112.5 -180.5q0 -70 -44 -124.5t-118 -54.5q-35 0 -109.5 33t-133.5 33q-86 0 -156 -55.5t-86 -137.5q106 33 207 33q129 0 231.5 -50t161 -139t58.5 -202q0 -152 -65 -263.5t-178.5 -169.5 t-262.5 -58q-117 0 -212.5 27.5t-160 76.5t-110.5 110.5t-70.5 138.5t-35.5 150.5t-11 151.5zM541 440q0 -82 28.5 -144.5t80.5 -62.5t78 61.5t26 145.5q0 88 -27 155t-76 67q-51 0 -80.5 -68t-29.5 -154z" />
<glyph unicode="7" horiz-adv-x="1208" d="M57 1198q0 -88 44 -126t165 -38q29 0 69 1t77 1h68.5h51t17.5 0q-12 -18 -34.5 -50t-80 -129t-100.5 -190.5t-79 -219.5t-36 -230q0 -102 58.5 -158.5t173.5 -56.5q63 0 98 6t64.5 30.5t46 70t28.5 122.5q35 203 113 382.5t252 369.5q4 6 14 16q25 29 37 42.5t25.5 35 t18.5 43t5 47.5q0 123 -58.5 162t-203.5 39q-86 -2 -606 -2q-127 0 -177.5 -31.5t-50.5 -136.5z" />
<glyph unicode="8" horiz-adv-x="1259" d="M61 383q0 221 207 332q-139 102 -139 272q0 178 139.5 281.5t358.5 103.5t357 -103.5t138 -281.5q0 -170 -139 -272q203 -113 203 -332q0 -184 -158.5 -289.5t-402.5 -105.5q-158 0 -284 45t-203 136t-77 214zM518 387q0 -49 11.5 -93t37 -74t60.5 -30q51 0 76.5 58.5 t25.5 138.5t-26.5 140.5t-75.5 60.5q-51 0 -80 -61.5t-29 -139.5zM526 991q0 -70 27 -121t75 -51t72.5 55.5t24.5 131.5q0 63 -25.5 111t-70.5 48q-33 0 -56.5 -26.5t-35 -65.5t-11.5 -82z" />
<glyph unicode="9" horiz-adv-x="1236" d="M68 926q0 141 63.5 245.5t177 158.5t262.5 54q139 0 248 -42t174.5 -108.5t107.5 -158.5t57.5 -183t15.5 -192q0 -127 -24 -234.5t-76 -197.5t-131 -153.5t-194.5 -98t-261.5 -34.5q-166 0 -278.5 69.5t-112.5 179.5q0 70 45 125.5t117 55.5q35 0 110.5 -39t135.5 -39 q49 0 96 24.5t80 68.5t43 97q-106 -33 -205 -32q-197 0 -323.5 122.5t-126.5 311.5zM475 913q0 -88 26.5 -154.5t76.5 -66.5q33 0 58.5 34t37.5 84t12 103q0 86 -28.5 151.5t-80 65.5t-77 -63.5t-25.5 -153.5z" />
<glyph unicode=":" horiz-adv-x="610" d="M75 139q0 -82 63.5 -118.5t160.5 -36.5q109 0 166 34.5t57 120.5q0 156 -223 156q-106 0 -165 -43t-59 -113zM75 833q0 -82 63.5 -118.5t160.5 -36.5q109 0 166 34.5t57 120.5q0 156 -223 156q-106 0 -165 -43t-59 -113z" />
<glyph unicode=";" horiz-adv-x="641" d="M81 -236q0 43 31 58q92 45 135 77.5t76 86.5q-96 0 -158.5 36.5t-62.5 118.5q0 45 24.5 80t74.5 55.5t122 20.5q111 0 180.5 -45t69.5 -152q0 -78 -30.5 -147.5t-79 -116.5t-104.5 -81t-107.5 -50t-90.5 -16q-37 0 -58.5 21.5t-21.5 53.5zM106 833q0 -82 63.5 -118.5 t160.5 -36.5q109 0 166 34.5t57 120.5q0 156 -223 156q-106 0 -165 -43t-59 -113z" />
<glyph unicode="&#x3c;" horiz-adv-x="913" d="M82 481q0 96 72 152l356 291q109 84 197 84q43 0 88 -47.5t45 -106.5q0 -27 -13.5 -51.5t-40 -51t-75.5 -63.5l-244 -201l250 -190q82 -57 104.5 -94t22.5 -84q0 -59 -45 -106.5t-90 -47.5q-64 0 -134 49l-415 310q-78 55 -78 157z" />
<glyph unicode="=" horiz-adv-x="1144" d="M45 254q0 154 178 154h680q74 0 117 -16.5t61.5 -50.5t18.5 -93q0 -76 -51.5 -106.5t-163.5 -30.5h-674q-166 0 -166 143zM45 676q0 154 178 153h680q74 0 117 -16t61.5 -50t18.5 -95q0 -74 -51.5 -105t-163.5 -31h-674q-166 0 -166 144z" />
<glyph unicode="&#x3e;" horiz-adv-x="913" d="M70 119q0 -59 45 -106.5t90 -47.5q63 0 133 49l416 310q78 55 77 157q0 96 -71 152l-357 291q-109 84 -196 84q-43 0 -88 -47.5t-45 -106.5q0 -39 28.5 -75t100.5 -91l243 -201l-249 -190q-82 -57 -104.5 -94t-22.5 -84z" />
<glyph unicode="?" horiz-adv-x="1181" d="M47 1163q0 -37 14.5 -73.5t46 -73.5t93 -60.5t143.5 -23.5q43 0 69.5 3t53.5 13t40 31.5t13 56.5q0 27 -15.5 65t-15.5 48q0 51 54 51q49 0 80.5 -60.5t31.5 -138.5q0 -70 -28.5 -135t-68.5 -114.5t-81 -95.5t-68.5 -93t-27.5 -92q0 -104 149 -104q61 0 152.5 54 t179.5 143t150.5 220.5t62.5 262.5q0 184 -142 276t-409 92q-248 0 -362.5 -67.5t-114.5 -184.5zM289 141q0 82 65.5 119t161.5 37q242 0 242 -156q0 -76 -63.5 -115.5t-178.5 -39.5q-53 0 -96 12t-72 32.5t-44 49t-15 61.5z" />
<glyph unicode="@" horiz-adv-x="2109" d="M37 516q0 399 266 613t770 214q98 0 192.5 -9t196 -31.5t188.5 -56.5t166.5 -88t136 -123.5t89.5 -167t33 -212.5q0 -127 -39 -227t-124 -181t-236.5 -126t-360.5 -45q-109 0 -144 61q-106 -72 -249 -71q-131 0 -217.5 106.5t-86.5 292.5q0 188 85 300t219 112 q133 0 247 -95q43 82 144 82q90 0 139 -39t49 -141v-305q170 41 170 227q0 225 -141 316.5t-445 91.5q-143 0 -252.5 -25.5t-199.5 -84t-138.5 -164t-48.5 -255.5q0 -115 30 -208t94.5 -169.5t182 -118.5t281.5 -42q25 0 84.5 4t89.5 4q63 0 110.5 -49t47.5 -119 q0 -43 -17.5 -73.5t-43 -48t-66.5 -27t-79 -12.5t-91 -3q-254 0 -452.5 65.5t-324.5 184.5t-190.5 281.5t-64.5 361.5zM977 465q0 -29 4 -56.5t11 -52t18.5 -44t27 -31t33.5 -11.5q47 0 76 43v312q-29 47 -74 47q-29 0 -51.5 -32t-33.5 -78t-11 -97z" />
<glyph unicode="A" horiz-adv-x="1458" d="M88 633q0 141 29.5 259t80 200t114 144t138 97t145.5 52.5t142 17.5q86 0 170 -23.5t170 -81t150.5 -142.5t105.5 -220t41 -303q0 -270 -19.5 -400.5t-65.5 -181.5t-142 -51q-135 0 -190.5 49t-55.5 154v108h-340v-108q0 -104 -55 -153.5t-191 -49.5q-57 0 -94 16.5 t-64.5 55.5t-41 113.5t-20.5 180t-7 267.5zM561 594h340v246q0 86 -20.5 138t-56.5 71.5t-91 19.5q-88 0 -130 -51t-42 -182v-242z" />
<glyph unicode="B" horiz-adv-x="1501" d="M150 293v866q0 70 24.5 123t78.5 86t130 33h469q205 -2 341 -111.5t136 -281.5q0 -55 -9 -97.5t-27.5 -75t-43 -57t-59.5 -49.5q190 -113 190 -301q0 -82 -31.5 -156.5t-94 -136t-165 -97.5t-231.5 -36h-475q-125 0 -179 63.5t-54 227.5zM623 279q160 0 237.5 40 t77.5 142q0 68 -35 104.5t-100.5 52t-179.5 15.5v-354zM623 844q96 0 156.5 14t96 50.5t35.5 99.5q0 86 -66.5 117.5t-221.5 31.5v-313z" />
<glyph unicode="C" horiz-adv-x="1603" d="M104 698q0 332 199 524.5t520 192.5q164 0 303.5 -55t221.5 -153.5t82 -215.5q0 -135 -90.5 -244.5t-233.5 -109.5q-82 0 -147.5 45t-65.5 129q0 39 38 108.5t38 98.5q0 43 -36 73.5t-85 30.5q-98 0 -161.5 -111.5t-63.5 -252.5q0 -109 41 -196t118.5 -138t180.5 -51 q76 0 145.5 29.5t112.5 65.5t89 65.5t81 29.5q45 0 77.5 -35.5t32.5 -74.5q0 -43 -25.5 -100.5t-81 -122t-129 -119t-183 -90t-230.5 -35.5q-160 0 -296 48t-236.5 137t-158 224t-57.5 303z" />
<glyph unicode="D" horiz-adv-x="1474" d="M139 293v864q0 244 234 244h301q319 0 512.5 -184.5t193.5 -507.5q0 -104 -19.5 -202.5t-64.5 -192t-112.5 -162t-172 -110.5t-235.5 -42h-403q-125 0 -179.5 63.5t-54.5 229.5zM612 279q53 0 93 11t76 40.5t58.5 79t36 126t13.5 181.5q0 117 -20.5 197.5t-59.5 122.5 t-85 59.5t-112 19.5v-837z" />
<glyph unicode="E" horiz-adv-x="1376" d="M141 293v864q0 246 234 246h663q119 0 177.5 -37t58.5 -133q0 -90 -50 -126t-165 -36h-447v-240h353q109 0 152.5 -34.5t43.5 -118.5q0 -70 -52 -99.5t-163 -29.5h-332v-217l445 -2q115 0 165 -34t50 -120q0 -98 -58.5 -137t-177.5 -39h-663q-121 0 -177.5 64.5 t-56.5 228.5z" />
<glyph unicode="F" horiz-adv-x="1320" d="M125 293v864q0 66 17.5 114t50 76.5t73.5 42t92 13.5h672q119 0 177.5 -37t58.5 -133q0 -90 -50.5 -126t-164.5 -36h-453v-240h360q55 0 93.5 -8t62 -27.5t32.5 -47t9 -70.5q0 -70 -51 -99.5t-164 -29.5h-342v-264q0 -139 -61.5 -212t-178.5 -73q-111 0 -172 66.5 t-61 226.5z" />
<glyph unicode="G" horiz-adv-x="1601" d="M104 698q0 332 201 524.5t533 192.5q131 0 235.5 -19.5t173 -52t114.5 -78.5t65.5 -97.5t19.5 -106.5q0 -39 -12.5 -75t-44 -71.5t-97 -58t-157.5 -22.5q-135 0 -172 40t-37 185q0 63 -84 63q-86 0 -147.5 -96t-61.5 -321q0 -209 70.5 -304.5t166.5 -95.5q31 0 56.5 12.5 t42 37t16.5 59.5q-49 0 -85 18.5t-52.5 46t-16.5 60.5q0 74 39 110.5t134 36.5h247q119 0 184.5 -51t65.5 -180q0 -188 -180 -328.5t-428 -140.5q-227 0 -404.5 82t-281 244.5t-103.5 385.5z" />
<glyph unicode="H" horiz-adv-x="1597" d="M117 1157q0 127 64.5 186.5t170.5 59.5q123 0 181.5 -45t58.5 -182v-345h416v326q0 86 31.5 142.5t81.5 80t120 23.5q119 0 179.5 -45t60.5 -182v-869q0 -166 -59.5 -236.5t-180.5 -70.5q-119 0 -174 64.5t-55 228.5l-2 231h-418v-217q0 -168 -57.5 -237.5t-182.5 -69.5 q-119 0 -174 64.5t-55 228.5z" />
<glyph unicode="I" horiz-adv-x="745" d="M143 291v866q0 246 232 246q119 0 179 -45t60 -182v-869q0 -160 -59 -233.5t-180 -73.5q-119 0 -175.5 63.5t-56.5 227.5z" />
<glyph unicode="J" horiz-adv-x="1347" d="M104 444q0 137 46.5 187.5t181.5 50.5q109 0 167 -39t58 -106q0 -20 -6 -65.5t-6 -63.5q0 -59 34.5 -94t77.5 -35q51 0 74 27.5t23 101.5v749q0 125 54 185.5t179 60.5q111 0 174.5 -51.5t63.5 -175.5v-760q0 -225 -136.5 -327.5t-400.5 -102.5q-84 0 -155.5 12 t-127 33.5t-101.5 50.5t-77.5 63.5t-56.5 72.5t-38 78t-20.5 76t-7.5 72z" />
<glyph unicode="K" horiz-adv-x="1476" d="M135 291v854q0 129 48 193.5t157 64.5q63 0 105 -8.5t82 -30t59.5 -67.5t19.5 -117q0 -63 -1 -142.5t-1 -111.5q0 -27 13.5 -45.5t41 -29.5t68.5 -11q88 0 117.5 69.5t29.5 284.5q0 106 57.5 157.5t184.5 51.5q137 0 184.5 -53.5t47.5 -190.5q0 -225 -79.5 -349 t-185.5 -136q104 -12 190.5 -105.5t86.5 -238.5q0 -141 -20.5 -210t-69.5 -94.5t-150 -25.5q-80 0 -132 22.5t-76.5 66.5t-24.5 114q0 90 -7.5 150.5t-18.5 96t-33.5 54t-44 23.5t-58.5 5h-109v-227q0 -164 -63.5 -234.5t-185.5 -70.5q-119 0 -175.5 66.5t-56.5 224.5z" />
<glyph unicode="L" horiz-adv-x="1245" d="M127 291v866q0 109 63.5 177.5t167.5 68.5q123 0 181.5 -45t58.5 -182v-822h350q119 0 167 -34.5t48 -143.5q0 -111 -55 -143.5t-180 -32.5h-535q-94 2 -151.5 29.5t-86 91t-28.5 170.5z" />
<glyph unicode="M" horiz-adv-x="1943" d="M135 197q0 -117 41 -157t131 -40q80 0 120 41t40 129v580l238 -433q72 -121 116.5 -167t110.5 -46q51 0 88 28t70 93l256 525v-537q2 -113 60 -163t150 -50q254 0 256 203v891q0 158 -78.5 234.5t-220.5 76.5q-197 0 -272 -148l-291 -589l-274 600q-35 63 -85 101 t-142 38q-170 0 -242 -80t-72 -237v-893z" />
<glyph unicode="N" horiz-adv-x="1583" d="M137 178v989q0 117 59.5 176.5t170.5 59.5q76 0 122 -23.5t109 -85.5l518 -516v447q0 88 44 132t120 44q88 0 127 -41t39 -133v-1032q0 -90 -53.5 -142.5t-155.5 -52.5q-27 0 -53.5 6t-56 22.5t-52 31t-56.5 44t-53.5 47t-60.5 56.5t-59 57l-375 354v-444 q0 -100 -38 -137t-120 -37q-90 0 -133 41t-43 137z" />
<glyph unicode="O" horiz-adv-x="1648" d="M104 692q0 332 200 527.5t517.5 195.5t518 -195.5t200.5 -527.5q0 -219 -97 -380.5t-259 -242.5t-364 -81t-362.5 81t-257 242.5t-96.5 380.5zM608 692q0 -102 23.5 -192t73.5 -151.5t116 -61.5q70 0 120 61.5t71.5 151.5t21.5 192q0 104 -22.5 197.5t-72.5 159 t-118 65.5q-66 0 -115 -65.5t-73.5 -159.5t-24.5 -197z" />
<glyph unicode="P" horiz-adv-x="1433" d="M125 293v864q0 125 67.5 185.5t178.5 60.5h364q133 0 246 -36t196 -100.5t129 -161.5t46 -216q0 -145 -84 -253t-221.5 -161t-309.5 -53h-116v-115q0 -166 -61.5 -236.5t-188.5 -70.5t-186.5 64.5t-59.5 228.5zM621 690q57 0 101 10.5t81 35t56.5 70.5t19.5 112 q0 76 -14.5 119.5t-50.5 66t-78 30t-115 7.5v-451z" />
<glyph unicode="Q" horiz-adv-x="1648" d="M104 690q0 334 202 528.5t519 194.5q315 0 515 -194.5t200 -528.5q0 -268 -140 -445t-372 -235q84 -92 342 -106q80 -4 119 -49t39 -152q0 -123 -65.5 -169t-184.5 -46t-224.5 34t-164 72.5t-103.5 86.5q-31 31 -56 78.5t-43.5 111t-22.5 131.5q-250 47 -405 227.5 t-155 460.5zM610 690q0 -59 8.5 -116.5t26 -109.5t42 -91t60 -62.5t78.5 -23.5q70 0 119 61.5t69.5 149.5t20.5 193.5t-21.5 198.5t-70.5 157.5t-117 64.5t-118 -65.5t-73.5 -158.5t-23.5 -198z" />
<glyph unicode="R" horiz-adv-x="1474" d="M123 293v864q0 119 64.5 181.5t168.5 62.5h430q252 0 408 -118t156 -302q0 -139 -58.5 -218t-187.5 -116q98 -6 182 -95t84 -222q0 -135 -25.5 -208t-72.5 -97.5t-133 -24.5q-121 0 -177.5 50t-56.5 153q0 127 -24.5 195.5t-63.5 89t-108 20.5l-113 -2v-199 q0 -307 -240 -307q-121 0 -177 64.5t-56 228.5zM596 813q160 0 236.5 40t76.5 142q0 98 -71.5 135t-241.5 37v-354z" />
<glyph unicode="S" horiz-adv-x="1421" d="M86 330q0 45 29.5 76.5t87.5 31.5q43 0 206.5 -54t264.5 -54q92 0 92 63q0 18 -7 33.5t-24.5 31t-39 29t-59.5 34l-76 41t-99.5 53t-118.5 65.5q-76 43 -130 106.5t-78.5 126t-24.5 115.5q0 172 153 280.5t436 108.5q244 0 416 -100t172 -213q0 -31 -13 -52.5 t-32.5 -30.5t-42.5 -9q-37 0 -110.5 37.5t-163.5 75.5t-166 38q-121 0 -121 -98q0 -31 19.5 -58.5t62.5 -57t84 -52.5t112.5 -60.5t120.5 -66.5q158 -90 221.5 -172t63.5 -188q0 -424 -571 -424q-113 0 -218.5 22.5t-184.5 59t-139.5 82t-91 92.5t-30.5 88z" />
<glyph unicode="T" horiz-adv-x="1509" d="M100 1235q0 63 26 100t77 52.5t137 15.5h877q115 0 166 -41t51 -141q0 -68 -30 -106t-79 -52t-127 -14h-190v-742q0 -117 -29 -185.5t-79 -95t-132 -26.5q-121 0 -175 64.5t-56 228.5l-5 756h-174q-129 0 -193.5 40.5t-64.5 145.5z" />
<glyph unicode="U" horiz-adv-x="1509" d="M119 547v610q0 109 64.5 177.5t162.5 68.5q121 0 183.5 -45t62.5 -182v-668q2 -66 21.5 -104.5t52 -54t84 -15.5t84 12t48 39t20.5 53.5t5 69.5v670q0 70 17.5 116.5t53.5 69t74 31t91 8.5q119 0 178 -57.5t59 -188.5v-610q0 -299 -144 -429t-486 -130q-326 0 -478.5 139 t-152.5 420z" />
<glyph unicode="V" horiz-adv-x="1540" d="M88 688q0 303 24.5 451.5t84 205t182.5 56.5q115 0 162 -50.5t47 -158.5q0 -119 1 -339t1 -282q0 -53 3 -84.5t12 -64.5t27.5 -50.5t49.5 -27.5t78 -10q104 0 136 53t32 182q0 61 1 283.5t1 339.5q0 109 52 159t179 50q113 0 168 -56.5t78 -205t23 -451.5 q0 -129 -30 -235.5t-82 -181t-117.5 -131t-141.5 -89.5t-149.5 -49t-145.5 -16q-88 0 -177 21.5t-180.5 74.5t-161 130t-113.5 201t-44 275z" />
<glyph unicode="W" horiz-adv-x="2088" d="M106 758q0 268 26 405t78 186.5t152 49.5q84 0 133.5 -23.5t70 -68.5t20.5 -117l2 -500q0 -197 30.5 -285t120.5 -88q45 0 67.5 38t31.5 122q-27 119 -27 371q0 141 6 225t18.5 145.5t41 88t64.5 38t99 11.5q37 0 65 -2t52.5 -12.5t40.5 -18.5t30.5 -30.5t23 -39 t15.5 -53.5t10 -64.5t4 -82t2 -94t1 -113.5q0 -258 -27 -381q8 -74 31 -108.5t70 -34.5q80 0 110.5 87t30.5 283l4 502q0 109 50.5 159t172.5 50q76 0 122 -24.5t79 -96.5t45.5 -194.5t12.5 -325.5q0 -121 -20.5 -225.5t-55.5 -182.5t-83 -140t-101.5 -103t-113 -69 t-115.5 -39t-110 -11q-184 0 -333 117q-147 -121 -334 -121q-80 0 -160 23.5t-163 81t-146.5 142t-103.5 221t-40 302.5z" />
<glyph unicode="X" horiz-adv-x="1562" d="M111 238q0 84 118 215l246 243l-280 273q-84 90 -84 172q0 100 86 178q94 84 168 84q90 0 157 -80l262 -336l217 291q100 123 226 123q86 0 159 -72q84 -86 84 -164q0 -90 -120 -215l-242 -229l276 -289q86 -96 86 -170q0 -102 -86 -178q-94 -86 -167 -86q-92 0 -158 80 l-264 344l-217 -297q-96 -125 -224 -125q-84 0 -159 76q-84 84 -84 162z" />
<glyph unicode="Y" horiz-adv-x="1456" d="M86 1163q0 113 86 178q82 61 145 62q88 0 158 -80l250 -291l209 244q104 125 223 125q88 0 137 -49q84 -84 84 -162q0 -43 -28.5 -91t-92.5 -124l-294 -361v-307q0 -166 -59.5 -236.5t-182.5 -70.5q-119 0 -174 64.5t-58 228.5l-2 332l-315 368q-86 98 -86 170z" />
<glyph unicode="Z" horiz-adv-x="1550" d="M121 256q0 61 7 101t33.5 83t48 69t79.5 85l522 475h-416q-137 0 -198.5 40t-61.5 134q0 88 50.5 124t148.5 36h837q61 0 108.5 -21.5t72 -55.5t37 -66.5t12.5 -61.5q0 -37 -2 -65.5t-11.5 -54t-13.5 -40t-23.5 -39t-27.5 -33t-39 -40t-43 -43.5l-598 -551h582 q61 0 102 -9.5t64.5 -31t33 -50t9.5 -71.5q0 -104 -65.5 -137t-227.5 -33h-768q-57 0 -115.5 34t-97.5 94t-39 128z" />
<glyph unicode="[" horiz-adv-x="978" d="M215 -98q0 -86 20.5 -132t77 -70t158.5 -24l221 -2q104 0 162.5 44t58.5 112q0 84 -69.5 120t-177.5 36v1343q109 0 178 37t69 119q0 45 -24.5 78.5t-75.5 54t-121 20.5h-221q-150 0 -203 -50t-53 -173v-1513z" />
<glyph unicode="\" horiz-adv-x="1118" d="M79 1300q0 -31 17 -73l467 -1125q29 -72 67.5 -104.5t102.5 -32.5q98 0 185 62.5t87 140.5q0 33 -22 88l-463 1124q-25 57 -63 84t-101 27q-98 0 -187.5 -57.5t-89.5 -133.5z" />
<glyph unicode="]" horiz-adv-x="976" d="M66 -170q0 84 69.5 120t177.5 36v1343q-109 0 -178 37t-69 119q0 45 24.5 78.5t75.5 54t121 20.5h221q150 0 203 -50t53 -173v-1513q0 -86 -20.5 -132t-77 -70t-158.5 -24l-221 -2q-104 0 -162.5 44t-58.5 112z" />
<glyph unicode="^" horiz-adv-x="983" d="M100 379q0 12 2 24t9 25l11 22q5 9 15 21t16 19q5 7 17 21q12 13 16 19q141 164 297 164q66 0 125 -26q59 -27 87 -51q28 -23 73 -68q104 -104 104 -170q0 -57 -46 -99t-101 -42q-49 0 -111 61q-8 10 -18 22q-10 11 -17 18t-16 15q-8 8 -13 15q-5 6 -12 12t-13 9 q-5 3 -10 7t-9 6t-9 4q-5 1 -12 1q-12 0 -27 -11q-15 -10 -26 -20q-10 -10 -32 -34t-33 -38q-61 -63 -119 -63q-59 0 -104 40q-44 40 -44 97z" />
<glyph unicode="_" horiz-adv-x="1333" d="M37 142.5q0 70.5 31.5 109.5t111.5 39h936q90 0 126 -31t36 -115t-42 -114.5t-140 -30.5h-930q-70 0 -99.5 36t-29.5 106.5z" />
<glyph unicode="`" horiz-adv-x="759" d="M74 1389q0 -102 127 -152l250 -84q51 -16 94 -16q61 0 99 35.5t38 87.5q0 35 -17.5 64.5t-35 43.5t-51.5 37q-6 4 -11 8l-235 148q-45 27 -99 26q-72 0 -115.5 -63.5t-43.5 -134.5z" />
<glyph unicode="a" d="M86 481q0 233 105.5 371.5t269.5 138.5q166 0 307 -117q55 102 178 103q111 0 172.5 -48t61.5 -177v-533q0 -123 -51.5 -171t-180.5 -48q-135 0 -178 76q-131 -88 -309 -88q-162 0 -268.5 132t-106.5 361zM530 481q0 -94 31 -167.5t86 -73.5q57 0 92 55v383 q-35 59 -90 59q-53 0 -86 -77.5t-33 -178.5z" />
<glyph unicode="b" horiz-adv-x="1288" d="M98 1155q0 127 61.5 186.5t164.5 59.5q115 0 169 -54.5t54 -172.5v-281q135 100 293 100q160 0 266 -135t106 -342q0 -250 -161.5 -390t-419.5 -140q-158 0 -275.5 45t-184.5 135t-69 217zM549 313q36 -69 100 -69h2q55 0 86 69.5t31 159.5q0 49 -8 96t-22.5 85t-37 61.5 t-51.5 23.5q-63 0 -100 -75v-153v-198z" />
<glyph unicode="c" horiz-adv-x="1226" d="M82 496q0 152 74.5 265t206 171.5t301.5 58.5q162 0 267 -38t150 -101.5t45 -151.5q0 -39 -15 -79.5t-47 -81.5t-93.5 -67t-143.5 -26q-37 0 -60.5 4.5t-49 17.5t-37.5 44t-12 78q0 41 15 99.5t15 76.5q0 47 -53 47q-39 0 -69.5 -43t-47 -107.5t-16.5 -134.5 q0 -102 62.5 -165.5t168.5 -63.5q104 0 181 25q31 8 74.5 30.5t62.5 22.5q29 0 47 -10.5t25.5 -24.5t7.5 -31q0 -29 -19.5 -69.5t-60.5 -85.5t-95.5 -83t-134 -62.5t-167.5 -24.5q-254 0 -418 136t-164 374z" />
<glyph unicode="d" horiz-adv-x="1280" d="M84 479q0 233 104.5 371.5t268.5 138.5q147 0 276 -94v262q0 125 61.5 185.5t163.5 60.5q113 0 169.5 -45t56.5 -182v-869q0 -166 -55.5 -236.5t-170.5 -70.5q-131 0 -180 82q-133 -96 -321 -96q-160 0 -266.5 132t-106.5 361zM526 479q0 -94 31 -167.5t86 -73.5 q10 0 20.5 2t18.5 5t16.5 8t14.5 11t12 14.5t12 16.5l-2 383q-35 57 -90 57q-35 0 -62.5 -39t-42 -96t-14.5 -121z" />
<glyph unicode="e" horiz-adv-x="1218" d="M80 469q0 242 160.5 382t414.5 140q240 0 351.5 -85t111.5 -232q0 -29 -7 -55.5t-22.5 -52t-41 -47t-58.5 -39t-78 -27t-96 -9.5l-289 -2q20 -66 73.5 -103.5t135.5 -37.5q88 0 180 23q39 10 85.5 32.5t66.5 22.5q35 0 54.5 -20.5t19.5 -51.5q0 -37 -33 -89t-91.5 -104.5 t-154.5 -89t-207 -36.5q-250 0 -412.5 129t-162.5 352zM516 573q141 2 154 2q31 0 45 37q10 27 10 74q0 129 -78 129q-29 0 -56.5 -30.5t-48 -87t-26.5 -124.5z" />
<glyph unicode="f" horiz-adv-x="962" d="M55 784q0 -57 35 -86.5t117 -31.5l-2 -373q0 -164 53 -228.5t168 -64.5q117 0 171 66.5t54 240.5v359q129 0 186.5 21.5t57.5 90.5q0 86 -53.5 111.5t-190.5 25.5q0 127 42 162t143 35q47 0 72.5 22.5t25.5 55.5q0 72 -94.5 141.5t-266.5 69.5q-111 0 -181 -29t-111 -92 t-56.5 -148t-15.5 -219q-154 -8 -154 -129z" />
<glyph unicode="g" d="M92 483q0 233 104.5 370.5t268.5 137.5q166 0 307 -114q53 100 176 100q111 0 173.5 -49t62.5 -176v-375q0 -199 -25.5 -341t-88 -251t-172.5 -162t-269 -53q-111 0 -205 30.5t-149.5 75.5t-86 90.5t-30.5 77.5q0 39 22.5 66t63.5 27q25 0 124 -53.5t160 -53.5 q209 0 209 215q-118 -57 -270 -57q-162 0 -268.5 132t-106.5 363zM537 483q0 -96 30.5 -168.5t85.5 -72.5t92 53l-2 387q-35 57 -88 57q-37 0 -64.5 -38.5t-40.5 -96t-13 -121.5z" />
<glyph unicode="h" d="M96 1167q0 127 61.5 186.5t164.5 59.5q55 0 91 -7t68.5 -30.5t49 -71t16.5 -118.5v-297q152 92 368 92q98 0 158 -50t88.5 -158.5t28.5 -285.5q0 -127 -6 -207.5t-19.5 -139t-42 -87t-66.5 -41t-98 -12.5q-115 0 -165 42t-50 128l-2 379q0 117 -90 117q-16 0 -29.5 -4.5 t-24.5 -10.5t-20.5 -17t-16.5 -24.5t-10 -32t-3 -40.5v-226q0 -168 -55.5 -238.5t-169.5 -70.5q-115 0 -168.5 64.5t-53.5 228.5z" />
<glyph unicode="i" horiz-adv-x="624" d="M88 1262q0 -82 63.5 -119t159.5 -37q109 0 166.5 35t57.5 121q0 155 -221 155h-3q-106 0 -164.5 -42.5t-58.5 -112.5zM92 242v503q0 104 56.5 168t150.5 64q111 0 172 -48t61 -177v-533q0 -123 -51 -171t-180 -48q-121 0 -165 56.5t-44 185.5z" />
<glyph unicode="j" horiz-adv-x="696" d="M-262 -213q0 -74 134 -139.5t351 -65.5q100 0 173 40t115 112.5t61.5 162t19.5 199.5v666q0 90 -61.5 152.5t-155.5 62.5q-102 0 -165 -60.5t-63 -185.5v-633q0 -70 -15 -114.5t-49 -64t-67.5 -25t-89.5 -5.5q-104 0 -146 -23.5t-42 -78.5zM141 1262q0 -82 63.5 -119 t160.5 -37q109 0 166 35t57 121q0 155 -220 155h-3q-106 0 -165 -42.5t-59 -112.5z" />
<glyph unicode="k" horiz-adv-x="1193" d="M96 293v842q0 88 29 142t75 76.5t119 26.5q127 0 170 -85t43 -294q0 -162 -18 -284q14 -45 92 -45q49 0 66.5 21.5t17.5 86.5q0 96 50.5 139.5t170.5 43.5q127 0 171 -46.5t44 -166.5q0 -127 -75.5 -197t-169.5 -70q96 0 170.5 -58t74.5 -175q0 -156 -42 -203t-173 -47 q-121 0 -171 44t-50 138q0 47 -8 70.5t-21.5 31t-42.5 7.5h-73q0 -106 -61.5 -198.5t-164.5 -92.5q-115 0 -169 64.5t-54 228.5z" />
<glyph unicode="l" horiz-adv-x="638" d="M92 1157q0 53 11.5 94t31 70t48 47t62.5 26.5t72 8.5q113 0 169.5 -45t56.5 -182v-867q0 -166 -55.5 -237.5t-170.5 -71.5t-168 64.5t-53 228.5z" />
<glyph unicode="m" horiz-adv-x="1853" d="M109 242v503q0 104 56 168t150 64q168 0 213 -109q78 57 153 80t175 23q152 0 219 -131q10 8 21 16q158 115 387 115q145 0 208.5 -110.5t63.5 -371.5q0 -109 -3 -180t-13 -128.5t-25.5 -90.5t-43.5 -54.5t-61.5 -28.5t-84.5 -7q-78 0 -126 20.5t-68.5 57.5t-20.5 92v371 q0 114 -90 114h-2q-41 0 -61.5 -47t-20.5 -119q0 -109 -3.5 -180t-13.5 -128.5t-24.5 -90.5t-39 -54.5t-55 -28.5t-77.5 -7q-72 0 -116 20.5t-62.5 57.5t-18.5 92v371q0 114 -90 114h-2q-37 0 -60.5 -42t-23.5 -109v-285q0 -123 -51.5 -171t-180.5 -48q-121 0 -164.5 56.5 t-43.5 185.5z" />
<glyph unicode="n" horiz-adv-x="1261" d="M90 242v503q0 104 56.5 168t150.5 64q78 0 131 -22.5t80 -77.5q160 104 389 104q145 0 209.5 -114.5t64.5 -377.5q0 -129 -6 -209.5t-19 -139t-42 -87t-67 -41t-97 -12.5q-115 0 -165 43t-50 127l-2 381q0 115 -90 115q-43 0 -70.5 -36t-32.5 -95v-316q0 -125 -51 -172 t-180 -47q-121 0 -165 56.5t-44 185.5z" />
<glyph unicode="o" horiz-adv-x="1292" d="M80 483q0 233 159.5 370.5t409.5 137.5t407.5 -137t157.5 -371q0 -231 -160.5 -364t-404.5 -133q-160 0 -288 57t-204.5 172t-76.5 268zM539 485q0 -104 28.5 -183t81.5 -79t80 78t27 184t-27 187.5t-78 81.5q-35 0 -61.5 -41t-38.5 -100.5t-12 -127.5z" />
<glyph unicode="p" horiz-adv-x="1271" d="M94 731q0 127 61.5 186.5t163.5 59.5q80 0 129.5 -19.5t73.5 -76.5q140 110 300 110h3q164 0 268.5 -137t104.5 -373q0 -229 -106.5 -361t-268.5 -132q-156 0 -278 69v-176q0 -166 -55.5 -236.5t-170.5 -70.5t-168 64.5t-53 228.5zM545 297q35 -57 92 -57q55 0 86 73.5 t31 167.5q0 100 -33 178t-86 78q-55 0 -90 -59v-381z" />
<glyph unicode="q" horiz-adv-x="1282" d="M84 465q0 248 169 386t437 138q231 0 367.5 -101.5t136.5 -289.5l4 -772q0 -127 -61.5 -186.5t-163.5 -59.5q-111 0 -168 60.5t-57 166.5l2 281q-135 -100 -293 -100q-160 0 -266.5 135t-106.5 342zM541 508q0 -104 30.5 -185t79.5 -81q61 0 97 75v351q-35 69 -97 69h-2 q-51 0 -79.5 -69.5t-28.5 -159.5z" />
<glyph unicode="r" horiz-adv-x="966" d="M92 242v503q0 70 24.5 122.5t72 81t110.5 28.5q156 0 205 -90q119 90 229 90q215 0 215 -205q0 -82 -47 -133t-123 -51q-45 0 -72.5 18.5t-51 37t-54.5 18.5q-45 0 -68 -31v-412q0 -123 -51 -171t-182 -48q-121 0 -164 56.5t-43 185.5z" />
<glyph unicode="s" horiz-adv-x="1150" d="M82 229q0 39 25.5 61.5t72.5 22.5t143.5 -46t178.5 -46q112 0 112 54q0 29 -59 47t-155.5 42.5t-153.5 61.5q-90 39 -126 97.5t-36 142.5q0 143 136 234t353 91q190 0 317.5 -77.5t127.5 -170.5q0 -27 -22.5 -49t-57.5 -22q-31 0 -67.5 21.5t-69.5 46t-86 45t-113 20.5 q-80 0 -80 -49q0 -35 41 -55.5t120 -43t120 -43.5q154 -59 211 -127.5t57 -181.5q0 -55 -30.5 -109.5t-92 -102.5t-167 -77.5t-240.5 -29.5q-264 0 -396 120q-63 59 -63 123z" />
<glyph unicode="t" horiz-adv-x="1026" d="M57 799q0 117 142 127v190q0 78 112.5 140.5t223.5 62.5q68 0 88 -39t20 -117l2 -235h55q113 0 155 -30t42 -107q0 -33 -12.5 -55.5t-40 -35t-66.5 -17.5t-96 -5h-37v-225q0 -33 3 -54.5t9.5 -34t17.5 -16.5t27 -4q25 0 41.5 17.5t25.5 39t24.5 39t35.5 17.5 q47 0 73 -22.5t26 -55.5q0 -55 -21.5 -118.5t-62.5 -123t-114 -98.5t-163 -39q-203 0 -286.5 102.5t-83.5 335.5v242q-51 2 -82 17.5t-44.5 40t-13.5 61.5z" />
<glyph unicode="u" horiz-adv-x="1280" d="M92 489q0 129 6 210t19.5 139.5t41 87t65.5 41t100 12.5q115 0 165 -43t50 -129l2 -375q0 -117 90 -117q31 0 54.5 19.5t35.5 54.5t12 80v274q0 70 24.5 122.5t72 81t110.5 28.5q111 0 172.5 -48t61.5 -177v-533q0 -125 -51.5 -172t-180.5 -47q-55 0 -94 11t-62.5 34 t-35.5 59q-84 -55 -177.5 -77.5t-207.5 -22.5q-145 0 -209 113.5t-64 373.5z" />
<glyph unicode="v" horiz-adv-x="1263" d="M90 506q0 201 18.5 298t62.5 135t134 38q127 0 180.5 -44t52.5 -138l3 -328v-48.5t2 -38t8 -32.5t15 -21.5t24.5 -15.5t38.5 -4q59 0 75.5 34t16.5 124l2 330q0 63 21.5 102t72.5 59.5t137 20.5q55 0 90 -12.5t62 -40t39 -84t18 -135t6 -199.5q0 -111 -34.5 -199 t-89 -144.5t-126 -94t-143 -53t-144.5 -15.5t-144.5 15.5t-144.5 53t-128 94t-90 144.5t-35 199z" />
<glyph unicode="w" horiz-adv-x="1822" d="M88 504q0 203 18.5 300t61.5 135t135 38q86 0 137.5 -20.5t73 -59.5t21.5 -102l2 -365q0 -31 1 -44t5 -32.5t12 -27t22.5 -13.5t36.5 -6q82 0 97 47q-18 123 -19 264q0 119 8.5 185.5t36 107.5t68.5 53.5t117 12.5q68 0 106.5 -12.5t63 -53.5t33 -107.5t8.5 -185.5 q0 -143 -17 -266q14 -45 92 -45q53 0 66.5 25.5t13.5 95.5l2 367q0 94 53.5 138t180.5 44q55 0 90 -12.5t60.5 -40t38.5 -84t19.5 -135t6.5 -201.5q0 -109 -34 -198t-86 -144.5t-122 -93t-139.5 -53t-138.5 -15.5q-166 0 -306 104q-137 -104 -303 -104q-70 0 -138.5 15.5 t-139 53t-123.5 93t-87 144.5t-34 198z" />
<glyph unicode="x" horiz-adv-x="1232" d="M72 231q0 20 17 46t51 57t59.5 53.5t65.5 53t48 38.5q-16 12 -46.5 38t-51 44.5t-47.5 46t-42 53t-27.5 58.5t-12.5 67q0 70 67.5 129.5t139.5 59.5q39 0 76 -16.5t70.5 -46t61 -59.5t61.5 -70t56 -60q23 20 70 75.5t78 87.5t80 60.5t96 28.5q29 0 59.5 -11.5t56 -31 t47 -43t33 -51t11.5 -54.5q0 -35 -12.5 -68.5t-47 -73.5t-50 -57.5t-65.5 -61.5l-50 -44q6 -8 47 -38.5t66.5 -53t58 -53.5t50 -56.5t17.5 -46.5q0 -84 -82 -157.5t-172 -73.5q-20 0 -41.5 6t-39 13.5t-40 23.5t-36 26.5t-37 33t-32.5 31.5t-34 36t-31 33q-4 -6 -26.5 -28.5 t-29.5 -31t-28.5 -30t-33 -30.5t-31.5 -25.5t-35.5 -23.5t-34 -16.5t-37 -13.5t-36.5 -4q-90 0 -172 73.5t-82 157.5z" />
<glyph unicode="y" horiz-adv-x="1243" d="M92 440q0 115 3 195t13.5 142.5t23.5 99t38 60.5t55.5 32t73.5 8q129 0 181 -44t52 -138l3 -330v-48.5t3 -38t8 -32.5t14 -21.5t24.5 -15.5t38.5 -4q61 0 76.5 34t15.5 124l2 332q0 63 21.5 102t72.5 59.5t139 20.5q53 0 91 -17.5t60.5 -45t34 -82t15.5 -109.5t4 -145 q0 -350 -20 -490q-16 -125 -51 -216t-98.5 -161.5t-162 -105.5t-233.5 -35q-109 0 -202 31.5t-147.5 78t-85 91.5t-30.5 77.5t21.5 60.5t58.5 28q27 0 62.5 -16.5t68.5 -37t78 -37t88 -16.5q111 0 157 55.5t46 157.5q-35 -14 -68 -24.5t-63.5 -16.5t-58.5 -8t-54 -2 q-121 0 -207 67.5t-124 167t-38 213.5z" />
<glyph unicode="z" horiz-adv-x="1140" d="M74 174q0 86 22.5 134t102.5 128l268 283h-150q-111 0 -159.5 30.5t-48.5 100.5q0 76 34.5 101.5t145.5 25.5h622q76 0 120 -42t44 -116q0 -70 -18.5 -106.5t-95.5 -124.5l-310 -332l273 2q59 0 92 -16.5t45 -47t12 -83.5q0 -68 -46 -89.5t-163 -21.5h-604q-70 0 -128 48 t-58 126z" />
<glyph unicode="{" horiz-adv-x="1124" d="M133 659q0 -129 160 -151v-606q0 -86 20.5 -132t76.5 -70t159 -24h221q104 0 162.5 43t58.5 111q0 84 -70.5 120t-179.5 36q0 637 -151 669q151 39 151 672q109 0 179.5 37t70.5 119q0 70 -58.5 112.5t-162.5 42.5h-221q-150 0 -203 -50t-53 -175v-604q-78 -12 -119 -52 t-41 -98z" />
<glyph unicode="|" horiz-adv-x="694" d="M125 41v1255q0 49 16.5 85t47 56.5t70.5 31t89 10.5q35 0 61.5 -2t53 -8.5t46 -17.5t34 -28.5t22.5 -44t8 -63.5v-1258q0 -207 -225 -207q-76 0 -123 16.5t-73.5 59.5t-26.5 115zM573 57z" />
<glyph unicode="}" horiz-adv-x="1138" d="M148 -170q0 84 70.5 120t179.5 36q0 637 151 669q-151 39 -151 672q-109 0 -179.5 37t-70.5 119q0 70 58.5 112.5t162.5 42.5h221q150 0 203 -50t53 -175v-604q78 -12 119 -52t41 -98q0 -129 -160 -151v-606q0 -86 -20.5 -132t-76.5 -70t-159 -24h-221q-104 0 -162.5 43 t-58.5 111z" />
<glyph unicode="~" horiz-adv-x="972" d="M-92 313q0 80 28.5 151t92 119t149.5 48q51 0 105.5 -10.5t99.5 -25.5t88 -33.5t77 -37t58.5 -34t38.5 -23.5l12 -10q0 70 60.5 122t146.5 52q119 0 161 -59.5t42 -172.5q0 -127 -71.5 -223t-200.5 -96q-84 0 -163 26.5t-127 59.5t-99.5 59.5t-90.5 26.5q0 -72 -59 -122 t-147 -50q-119 0 -160 59.5t-41 173.5z" />
<glyph horiz-adv-x="1146" d="M530 266q0 -164 53.5 -228.5t168.5 -64.5q117 0 171 66.5t54 241.5v641q0 66 12 87t47 21q23 0 40.5 -17.5t25.5 -39t24.5 -38.5t34.5 -17q25 0 44.5 6t30.5 17t17.5 24.5t6.5 27.5q0 57 -21.5 121t-62.5 123t-114 98t-161 39q-203 0 -283.5 -101.5t-82.5 -336.5z" />
<glyph horiz-adv-x="1429" d="M496 555q0 94 38.5 186.5t106.5 151.5q74 66 141.5 91.5t180.5 25.5q111 0 169 -64t58 -166q0 -123 -60.5 -197.5t-185.5 -74.5q-59 0 -96 30.5t-48.5 66.5t-25.5 66.5t-35 30.5q-43 0 -55 -31.5t-10 -113.5z" />
<glyph horiz-adv-x="1593" d="M246 489q0 129 6 210t19.5 139.5t42 87t66.5 41t97 12.5q115 0 165 -44t50 -128q0 -74 1 -204t1 -171q0 -117 90 -117q47 0 75 43t28 111h180q0 -244 -143 -354q-164 -115 -404 -115q-145 0 -209.5 114.5t-64.5 374.5z" />
<glyph unicode="&#x85;" horiz-adv-x="933" d="M272 1128q0 127 61.5 186.5t164.5 59.5q53 0 90 -8t69.5 -30.5t49 -69.5t16.5 -119v-866q0 -113 -26.5 -181.5t-75 -98.5t-123.5 -30q-57 0 -97.5 14.5t-69 47.5t-42 90t-13.5 141z" />
<glyph horiz-adv-x="1593" d="M471 510q0 244 141 354q164 115 406 115q145 0 209.5 -114.5t64.5 -377.5q0 -129 -6 -209.5t-20.5 -139t-42 -87t-65.5 -41t-99 -12.5q-115 0 -165 43t-50 127l-2 381q0 115 -90 115q-29 0 -52.5 -19.5t-37 -54.5t-13.5 -78z" />
<glyph horiz-adv-x="1646" d="M238 481q0 233 104 371.5t268 138.5q86 0 168 -32.5t143.5 -86t108.5 -118t71.5 -131t24.5 -123.5q0 -160 -69.5 -278t-185.5 -176t-261 -58q-160 0 -266 132t-106 361zM682 481q0 -94 29.5 -167.5t87.5 -73.5q66 0 100.5 71.5t34.5 169.5q0 66 -13.5 122t-45 95 t-76.5 39q-53 0 -85 -77.5t-32 -178.5z" />
<glyph horiz-adv-x="1646" d="M238 500q0 57 24.5 123.5t71.5 131t108.5 118t142.5 86t167 32.5q164 0 269 -138t105 -372q0 -229 -106 -361t-268 -132q-145 0 -261 58t-184.5 176t-68.5 278zM430 481q0 -98 34 -169.5t101 -71.5q55 0 86 73.5t31 167.5q0 100 -33 178t-86 78q-43 0 -74.5 -39t-45 -95 t-13.5 -122z" />
<glyph horiz-adv-x="2048" />
<glyph unicode="&#xa1;" horiz-adv-x="698" d="M113 1262q0 -82 64.5 -120t162.5 -38q242 0 242 158q0 76 -64.5 114.5t-177.5 38.5q-106 0 -166.5 -42.5t-60.5 -110.5zM123 193q0 98 41 331.5t41 331.5q0 88 29.5 127t101.5 39q78 0 111.5 -38t33.5 -122q0 -98 41 -343t41 -349q0 -96 -53 -140t-178 -44 q-119 0 -164 52t-45 155z" />
<glyph unicode="&#xa2;" horiz-adv-x="1226" d="M82 614q0 174 97 296t267 171l3 133q0 61 26.5 103.5t67.5 60t98 17.5q94 0 143.5 -33t49.5 -131v-133q293 -51 292 -281q0 -39 -15 -80t-47 -81t-93.5 -66.5t-143.5 -26.5q-37 0 -60.5 4t-49 18.5t-37.5 44t-12 77.5q0 43 15 100.5t15 75.5q0 47 -53 47q-39 0 -69.5 -42 t-47 -106.5t-16.5 -136.5q0 -100 62.5 -163.5t168.5 -63.5q104 0 181 22q31 8 74.5 32t62.5 24q41 0 60.5 -20.5t19.5 -45.5q0 -68 -85 -163t-222 -138v-125q0 -80 -24 -126t-64.5 -63.5t-108.5 -17.5q-98 0 -144.5 42t-46.5 151v143q-168 51 -266 175t-98 306z" />
<glyph unicode="&#xa3;" horiz-adv-x="1138" d="M82 162q0 -80 29.5 -121t101.5 -41h635q63 0 101 13.5t58.5 50t20.5 102.5q0 63 -15.5 99t-50 51.5t-96.5 15.5h-110v270h82q88 0 115.5 24.5t27.5 100.5q0 47 -15.5 74.5t-46 39t-81.5 11.5h-84v63q0 74 8 108t35 54q41 35 141 35q47 0 72.5 22.5t25.5 55.5 q0 72 -94 141.5t-266 69.5q-111 0 -181.5 -29t-111.5 -92t-56.5 -148t-15.5 -219v-61h-65q-70 0 -103.5 -35t-33.5 -94q0 -121 137 -121h63v-166q0 -33 -9 -51t-33.5 -32.5t-76.5 -30.5q-59 -18 -83.5 -53.5t-24.5 -106.5z" />
<glyph unicode="&#xa4;" horiz-adv-x="1335" d="M0 319q0 57 72 107l49 35q-35 84 -35 182q0 104 37 191l-21 14q-102 70 -102 129q0 55 50 111.5t93 56.5q41 0 109 -47l65 -45q147 86 351 86q197 0 342 -82l59 41q68 47 107 47q45 0 94 -56.5t49 -111.5q0 -59 -100 -129l-11 -6q39 -90 39 -199q0 -102 -39 -190l41 -27 q70 -49 70 -107q0 -55 -47 -113.5t-94 -58.5q-39 0 -84 31l-88 62q-143 -78 -338 -78q-199 0 -346 82l-97 -66q-43 -31 -84 -31q-31 0 -63.5 28t-55 69t-22.5 75zM514 647q0 -68 41 -120t115 -52t111.5 51t37.5 121q0 45 -15.5 84t-50 65.5t-83.5 26.5t-86 -26.5 t-53.5 -65.5t-16.5 -84z" />
<glyph unicode="&#xa5;" horiz-adv-x="1480" d="M84 1163q0 113 86 178q82 61 145 62q88 0 158 -80l250 -291l209 244q104 125 223 125q88 0 137 -49q84 -84 84 -162q0 -43 -28.5 -91t-92.5 -124l-294 -361v-307q0 -166 -59.5 -236.5t-182.5 -70.5q-119 0 -174.5 64.5t-57.5 228.5l-2 332l-315 368q-86 98 -86 170z M188 236q0 53 29 79.5t109 26.5h774q78 0 110.5 -23.5t32.5 -82.5t-31.5 -81t-111.5 -22h-774q-137 0 -138 103zM188 561q0 35 10.5 56.5t41 36t86.5 14.5h774q78 0 110.5 -23.5t32.5 -83.5q0 -20 -3 -35.5t-11 -28t-18.5 -19.5t-28 -11t-37 -6t-45.5 -2h-774 q-137 0 -138 102z" />
<glyph unicode="&#xa6;" horiz-adv-x="694" d="M125 133v297q0 94 60.5 138t162.5 44q113 0 169 -31.5t56 -131.5v-299q0 -207 -225 -207q-76 0 -123 16t-73.5 59t-26.5 115zM125 999v297q0 94 60.5 138.5t162.5 44.5q113 0 169 -32t56 -132v-299q0 -207 -225 -207q-115 0 -169 42t-54 148z" />
<glyph unicode="&#xa7;" horiz-adv-x="1638" d="M68 147q0 45 29.5 77t88.5 32q41 0 199 -54.5t254 -54.5q92 0 92 64q0 23 -11 39t-29.5 29.5t-55.5 32t-77 38t-106.5 53t-132.5 72.5q-80 45 -130 94t-74.5 108.5t-24.5 133.5q0 61 18.5 116.5t43 91.5t65.5 69.5t73 53t77 42.5q0 102 32.5 189t97 156.5t172 109.5 t249.5 40q242 0 403.5 -99t161.5 -214q0 -43 -26.5 -67.5t-59.5 -24.5q-37 0 -106.5 38t-155.5 75.5t-160 37.5q-119 0 -119 -98q0 -37 34 -70.5t78 -56t125 -64.5t138 -79q63 -39 94 -59.5t75 -51.5t62.5 -50t43 -49t33.5 -57.5t16.5 -63.5t7.5 -79q0 -127 -75 -223 t-165 -129q4 -31 4 -66q0 -72 -18.5 -133t-61.5 -115.5t-109.5 -93.5t-170 -61.5t-234.5 -22.5q-139 0 -267 35t-213 87t-135 111.5t-50 110.5zM584 856q0 -49 61.5 -110.5t150.5 -104.5t162 -43q43 0 71 17.5t28 50.5q0 20 -17.5 36.5t-64.5 42.5q-57 33 -120.5 73 t-91.5 58.5t-59.5 31t-58.5 12.5q-61 0 -61 -64z" />
<glyph unicode="&#xa8;" horiz-adv-x="925" d="M0 1646q0 -78 60.5 -113t154.5 -35q104 0 159 33t55 115q0 150 -214 150q-102 0 -158.5 -41t-56.5 -109zM493 1646q0 -78 60.5 -113t154.5 -35q104 0 159 33t55 115q0 150 -214 150q-102 0 -158.5 -41t-56.5 -109z" />
<glyph unicode="&#xa9;" horiz-adv-x="1095" d="M-6 1153q0 -215 165 -364.5t398 -149.5q231 0 392 149.5t161 364.5t-161 364.5t-392 149.5q-233 0 -398 -149.5t-165 -364.5zM123 1153q0 80 33.5 151.5t92 123t139.5 82t169 30.5q178 0 302 -112.5t124 -274.5q0 -80 -34 -151.5t-90 -123t-135 -82t-167 -30.5 q-180 0 -307 112.5t-127 274.5zM221 1155q0 135 96.5 214t249.5 79q274 0 275 -172q0 -33 -14.5 -64.5t-56.5 -59.5t-107 -28q-45 0 -70 14.5t-25 59.5q0 16 9.5 42t9.5 34q0 35 -31 35t-49.5 -42t-18.5 -93q0 -55 34 -89t91 -34q61 0 109 12q18 6 40.5 19.5t33.5 13.5 q18 0 32.5 -7.5t20.5 -17.5t6 -20q0 -25 -19.5 -56.5t-54 -64.5t-92 -56.5t-123.5 -23.5q-152 0 -249 82t-97 223z" />
<glyph unicode="&#xaa;" d="M250 1054q0 163 74 260t189 97q116 0 215 -82q38 71 124 72q78 0 121 -33.5t43 -124.5v-373q0 -86 -36 -119.5t-126 -33.5q-95 0 -125 53q-92 -61 -216 -61q-114 0 -188.5 92t-74.5 253zM561 1054q0 -66 21.5 -117.5t60.5 -51.5q40 0 64 38v269q-24 41 -63 41 q-37 0 -60 -54.5t-23 -124.5z" />
<glyph unicode="&#xab;" horiz-adv-x="1636" d="M105 600q0 96 72 152l356 291q109 84 197 84q43 0 88 -47.5t45 -106.5q0 -27 -13.5 -51.5t-40 -51t-75.5 -63.5l-244 -201l250 -190q82 -57 104.5 -94t22.5 -84q0 -59 -45 -106.5t-90 -47.5q-64 0 -134 49l-415 310q-78 55 -78 157zM827 600q0 96 72 152l356 291 q109 84 197 84q43 0 88 -47.5t45 -106.5q0 -27 -13.5 -51.5t-40 -51t-75.5 -63.5l-244 -201l250 -190q82 -57 104.5 -94t22.5 -84q0 -59 -45 -106.5t-90 -47.5q-64 0 -134 49l-415 310q-78 55 -78 157z" />
<glyph unicode="&#xac;" horiz-adv-x="1144" d="M45 676q0 154 178 153h680q41 0 69.5 -4t51.5 -12q80 -33 80 -166v-299q0 -109 -35 -146.5t-127 -37.5q-39 0 -67.5 11t-48 34.5t-30 63.5t-10.5 94v165h-575q-166 0 -166 144z" />
<glyph unicode="&#xad;" horiz-adv-x="2244" />
<glyph unicode="&#xae;" horiz-adv-x="1124" d="M6 1153q0 -215 165 -364.5t398 -149.5q229 0 391 149.5t162 364.5t-161.5 364.5t-391.5 149.5q-233 0 -398 -149.5t-165 -364.5zM135 1153q0 80 34 151.5t92 123t139 82t169 30.5q176 0 301 -112.5t125 -274.5q0 -80 -33.5 -151.5t-91 -123t-136.5 -82t-165 -30.5 q-180 0 -307 112.5t-127 274.5zM330 989v354q0 51 26.5 76t69.5 25h156q104 0 167.5 -48t63.5 -124q0 -109 -100 -137q41 -2 74.5 -39t33.5 -92t-10 -85t-29.5 -40.5t-54.5 -10.5q-96 0 -96 84q0 76 -14.5 100.5t-45.5 24.5h-47v-82q0 -127 -98 -127q-49 0 -72.5 27 t-23.5 94zM524 1214q57 0 81 14.5t24 49.5t-21.5 47t-83.5 12v-123z" />
<glyph unicode="&#xaf;" horiz-adv-x="972" d="M70 1227q0 -94 53 -129t174 -35h414q82 0 134 43t52 117q0 84 -45 131t-158 47h-426q-86 0 -142 -42t-56 -132z" />
<glyph unicode="&#xb0;" horiz-adv-x="749" d="M0 1137q0 147 104.5 232t268.5 85t267 -85t103 -232q0 -72 -28.5 -131.5t-78.5 -97.5t-117.5 -59.5t-145.5 -21.5q-160 0 -266.5 83t-106.5 227zM295 1140q0 -34 20.5 -59.5t59.5 -25.5q25 0 43 12t25.5 32t7.5 40q0 37 -19.5 63.5t-56.5 26.5t-58.5 -27.5t-21.5 -61.5z " />
<glyph unicode="&#xb1;" horiz-adv-x="1130" d="M138 759q0 70 35.5 110t131.5 40h104v85q0 108 36 150t123 42q49 0 78.5 -22.5t42.5 -68t13 -120.5v-66h89q108 0 150.5 -35.5t42.5 -121.5q0 -75 -50 -104.5t-161 -29.5h-71v-114q0 -164 -141 -164q-152 0 -152 177v101h-109q-162 0 -162 141zM189 131q0 136 140 136 h518q78 0 109.5 -32t31.5 -111q0 -68 -37.5 -94t-119.5 -26h-495q-147 0 -147 127z" />
<glyph unicode="&#xb2;" horiz-adv-x="1191" d="M234 693q0 28 5.5 49t21.5 41t43 39q78 52 122 83.5t86.5 66.5t62.5 60t36.5 56.5t21.5 63t5 74.5q0 80 -50 80q-55 0 -54 -94q0 -53 -35 -69t-102 -16q-91 0 -123.5 40.5t-32.5 133.5t88.5 155.5t245.5 62.5q390 0 390 -297q0 -69 -16 -125.5t-39 -95t-62 -72.5 t-73.5 -55.5t-84.5 -45.5h159q120 0 120 -135q0 -77 -37.5 -108.5t-135.5 -31.5h-389q-100 0 -136.5 26t-36.5 114z" />
<glyph unicode="&#xb3;" horiz-adv-x="1200" d="M221 723q0 71 28.5 98t80.5 27q26 0 80.5 -6t83.5 -6q156 0 156 57q0 39 -30 54t-114 15q-83 0 -117.5 21.5t-34.5 80.5q0 89 118 89q76 0 112.5 7t42 16.5t5.5 31.5q0 70 -130 70q-27 0 -73.5 -5t-68.5 -5q-103 0 -103 123q0 128 298 128q193 0 289.5 -63t96.5 -166 q0 -142 -124 -226q83 -44 117 -92t34 -139q0 -124 -98 -202t-264 -78q-206 0 -295.5 42t-89.5 128z" />
<glyph unicode="&#xb4;" horiz-adv-x="759" d="M74 1260q0 74 82 131l32 22l236 148q45 27 98 26q72 0 116 -63.5t44 -134.5q0 -102 -127 -152l-250 -84q-51 -16 -94 -16q-41 0 -73 16t-48 44t-16 63z" />
<glyph unicode="&#xb5;" horiz-adv-x="1280" d="M92 532v109t3 90t9.5 79t17.5 60.5t28.5 49t41 32t56.5 21.5t76 6q115 0 165 -43t50 -129q0 -72 1 -203t1 -172q0 -117 90 -117q45 0 73.5 43t28.5 111v274q0 104 56.5 168t150.5 64q111 0 172.5 -48t61.5 -177v-533q0 -125 -51.5 -172t-180.5 -47q-156 0 -192 104 q-98 -74 -211 -104v-178q0 -129 -45 -185.5t-170 -56.5q-113 0 -162 92t-58 297q-12 332 -12 565z" />
<glyph unicode="&#xb6;" horiz-adv-x="2048" d="M43 803q0 -135 60.5 -244.5t158.5 -177.5t218 -103.5t247 -35.5q0 -129 44 -185.5t165 -56.5q129 0 180 48t51 171v920h195v-897q0 -129 44 -185.5t165 -56.5q129 0 180 48t51 171v920q111 0 160 22.5t49 95.5q0 55 -14.5 85t-49 44.5t-100.5 14.5h-1118 q-315 0 -500.5 -149.5t-185.5 -448.5z" />
<glyph unicode="&#xb7;" horiz-adv-x="645" d="M90 479q0 -55 34 -92t81 -50t108 -13q72 0 119 12t76 48t29 95q0 156 -224 156q-106 0 -164.5 -43t-58.5 -113z" />
<glyph unicode="&#xb8;" horiz-adv-x="1226" d="M281 -358q0 47 33.5 91t68.5 44q14 0 43 -12.5t39 -12.5q18 0 32.5 16.5t14.5 38.5q0 18 -40 48t-40 53q0 12 16.5 51t32.5 70l17 32h266q-43 -84 -43 -108q0 -15 27 -27q86 -43 86 -151q0 -125 -86 -202t-203 -77q-33 0 -75 8.5t-86 23.5t-73.5 45t-29.5 69z" />
<glyph unicode="&#xb9;" horiz-adv-x="888" d="M174 1411q0 48 41 79t114 31q29 0 81 -1t74 -1q106 0 142.5 -35t36.5 -122l1 -583q0 -116 -41.5 -165.5t-126.5 -49.5q-56 0 -90 17.5t-52 63t-19 123.5l-3 535q-69 0 -113.5 25t-44.5 83z" />
<glyph unicode="&#xba;" horiz-adv-x="1292" d="M251 1047q0 163 111.5 259.5t286.5 96.5t285.5 -96t110.5 -260q0 -162 -112.5 -255t-283.5 -93q-112 0 -201.5 40t-143 120.5t-53.5 187.5zM572 1048q0 -72 20 -127.5t57 -55.5t56 54.5t19 128.5q0 75 -19 132t-54 57q-25 0 -43.5 -29t-27 -70.5t-8.5 -89.5z" />
<glyph unicode="&#xbb;" horiz-adv-x="1708" d="M101 238q0 -59 45 -106.5t90 -47.5q64 0 134 49l415 310q78 55 78 157q0 96 -72 152l-356 291q-109 84 -197 84q-43 0 -88 -47.5t-45 -106.5q0 -27 13.5 -51.5t40 -51t75.5 -63.5l244 -201l-250 -190q-82 -57 -104.5 -94t-22.5 -84zM823 238q0 -59 45 -106.5t90 -47.5 q64 0 134 49l415 310q78 55 78 157q0 96 -72 152l-356 291q-109 84 -197 84q-43 0 -88 -47.5t-45 -106.5q0 -27 13.5 -51.5t40 -51t75.5 -63.5l244 -201l-250 -190q-82 -57 -104.5 -94t-22.5 -84z" />
<glyph unicode="&#xbc;" horiz-adv-x="2115" d="M70 1415q0 47 40 77t111 30q27 0 77 -1t73 -1q100 0 136 -33t36 -119l2 -563q0 -113 -40 -161t-124 -48q-53 0 -86 17.5t-51.5 61.5t-18.5 120l-2 516q-154 0 -153 104zM408 180q0 39 14 62l754 1104q31 43 53 60t63 17q45 0 91.5 -18.5t77 -50t30.5 -66.5t-12 -51 l-758 -1104q-2 -4 -13.5 -20.5t-13.5 -19.5t-11 -15t-14 -15.5t-13.5 -10.5t-15.5 -9t-17.5 -4t-22.5 -2q-45 0 -90 19.5t-73.5 53t-28.5 70.5zM1165 391q0 -68 43 -110.5t133 -42.5h258q0 -111 37 -157t119 -46t122 47t40 158q55 4 78.5 24.5t23.5 71.5q0 35 -8 55.5 t-31.5 32.5t-62.5 16v367q0 57 -14.5 89t-52.5 47t-107 15h-58.5h-62.5q-127 0 -199 -104q-145 -213 -221 -332q-37 -59 -37 -131zM1415 434l187 295l-5 -295h-182z" />
<glyph unicode="&#xbd;" horiz-adv-x="2217" d="M70 1415q0 47 40 77t111 30q27 0 77 -1t73 -1q100 0 136 -33t36 -119l2 -563q0 -113 -40 -161t-124 -48q-53 0 -86 17.5t-51.5 61.5t-18.5 120l-2 516q-154 0 -153 104zM408 180q0 39 14 62l754 1104q31 43 53 60t63 17q45 0 91.5 -18.5t77 -50t30.5 -66.5t-12 -51 l-758 -1104q-2 -4 -13.5 -20.5t-13.5 -19.5t-11 -15t-14 -15.5t-13.5 -10.5t-15.5 -9t-17.5 -4t-22.5 -2q-45 0 -90 19.5t-73.5 53t-28.5 70.5zM1298 139q0 43 15.5 71t54.5 54q207 139 264.5 207t57.5 184q0 78 -48 78q-53 0 -53 -90q0 -37 -19.5 -55.5t-45 -23.5t-66.5 -5 q-90 0 -120.5 39t-30.5 130t85 150.5t238 59.5q377 0 377 -287q0 -82 -20.5 -144.5t-62.5 -106.5t-82 -71.5t-103 -58.5h155q117 0 117 -131q0 -74 -37 -104.5t-131 -30.5h-377q-96 0 -132 25.5t-36 109.5z" />
<glyph unicode="&#xbe;" horiz-adv-x="2115" d="M25 737q0 70 27.5 95.5t76.5 25.5q25 0 78 -5t80 -5q152 0 151 55q0 37 -28.5 51.5t-108.5 14.5q-82 0 -114.5 20.5t-32.5 77.5q0 86 112 86q74 0 110 7t41 16.5t5 29.5q0 68 -127 68q-27 0 -71 -5t-66 -5q-98 0 -99 120q0 123 289 123q186 0 279.5 -61.5t93.5 -159.5 q0 -137 -121 -219q82 -43 113.5 -89t31.5 -134q0 -121 -94 -197t-254 -76q-201 0 -286.5 42t-85.5 124zM510 180q0 39 16 62l754 1104q20 29 32.5 43t34 24t50.5 10q70 0 134 -41t64 -94q0 -35 -12 -51l-758 -1104q-2 -4 -13 -20.5t-14 -19.5t-12.5 -15t-13.5 -15.5 t-13 -10.5t-16.5 -9t-17.5 -4t-20 -2q-70 0 -132.5 44t-62.5 99zM1210 348q0 -68 44 -110.5t135 -42.5h256q0 -113 37.5 -158t118.5 -45t121 47t42 158q55 4 78.5 24.5t23.5 71.5q0 35 -9 55.5t-31.5 32.5t-61.5 16l-2 367q0 57 -14.5 89t-51 47t-106.5 15h-58.5h-62.5 q-127 0 -199 -104q-145 -213 -221 -332q-39 -59 -39 -131zM1462 391l187 295l-4 -295h-183z" />
<glyph unicode="&#xbf;" horiz-adv-x="1193" d="M78 238q0 37 15.5 73.5t47 73.5t93 60.5t143.5 23.5q86 0 131 -19.5t45 -84.5q0 -16 -5 -34t-11.5 -30t-11.5 -26.5t-5 -22.5q0 -51 53 -51q49 0 81 60.5t32 137.5q0 70 -27.5 135.5t-68.5 115.5t-81 95.5t-68.5 92.5t-28.5 92q0 106 149 106q41 0 96.5 -25.5t117 -68.5 t120.5 -107.5t106.5 -137t76 -163t28.5 -180.5q0 -184 -141.5 -276t-407.5 -92q-248 0 -363.5 67.5t-115.5 184.5zM322 1260q0 -82 64.5 -119t160.5 -37q244 0 244 156q0 76 -64.5 115.5t-179.5 39.5q-106 0 -165.5 -43.5t-59.5 -111.5z" />
<glyph unicode="&#xc0;" horiz-adv-x="1458" d="M88 633q0 141 29.5 259t80 200t114 144t138 97t145.5 52.5t142 17.5q86 0 170 -23.5t170 -81t150.5 -142.5t105.5 -220t41 -303q0 -270 -19.5 -400.5t-65.5 -181.5t-142 -51q-135 0 -190.5 49t-55.5 154v108h-340v-108q0 -104 -55 -153.5t-191 -49.5q-57 0 -94 16.5 t-64.5 55.5t-41 113.5t-20.5 180t-7 267.5zM296 1786q0 -115 142 -168l276 -92q55 -18 103 -19q45 0 80.5 18.5t54 49.5t18.5 67q0 39 -19.5 72t-39 48.5t-57.5 39.5q-8 6 -13 8l-258 164q-49 29 -108 29q-80 0 -129.5 -69.5t-49.5 -147.5zM561 594h340v246q0 86 -20.5 138 t-56.5 71.5t-91 19.5q-88 0 -130 -51t-42 -182v-242z" />
<glyph unicode="&#xc1;" horiz-adv-x="1458" d="M88 633q0 141 29.5 259t80 200t114 144t138 97t145.5 52.5t142 17.5q86 0 170 -23.5t170 -81t150.5 -142.5t105.5 -220t41 -303q0 -270 -19.5 -400.5t-65.5 -181.5t-142 -51q-135 0 -190.5 49t-55.5 154v108h-340v-108q0 -104 -55 -153.5t-191 -49.5q-57 0 -94 16.5 t-64.5 55.5t-41 113.5t-20.5 180t-7 267.5zM503 1669q0 27 9.5 50.5t16.5 34.5t34 32.5t30 25t40 25.5l258 164q49 29 108 29q80 0 129 -70t49 -148q0 -115 -141 -167l-277 -93q-55 -18 -102 -18q-45 0 -81 18.5t-54.5 49t-18.5 67.5zM561 594h340v246q0 86 -20.5 138 t-56.5 71.5t-91 19.5q-88 0 -130 -51t-42 -182v-242z" />
<glyph unicode="&#xc2;" horiz-adv-x="1458" d="M88 633q0 141 29.5 259t80 200t114 144t138 97t145.5 52.5t142 17.5q86 0 170 -23.5t170 -81t150.5 -142.5t105.5 -220t41 -303q0 -270 -19.5 -400.5t-65.5 -181.5t-142 -51q-135 0 -190.5 49t-55.5 154v108h-340v-108q0 -104 -55 -153.5t-191 -49.5q-57 0 -94 16.5 t-64.5 55.5t-41 113.5t-20.5 180t-7 267.5zM332 1675q0 14 2 27.5t8 26t12.5 22.5t16.5 23.5t16 20.5t17.5 20.5t17.5 19.5q150 174 313 174q51 0 96.5 -13.5t85.5 -41t61 -46t56 -53.5q111 -111 111 -180q0 -59 -49 -103t-107 -44q-53 0 -116 65q-25 25 -56.5 64t-47 53 t-32.5 14q-16 0 -34.5 -17t-45 -53t-45.5 -55q-66 -68 -124 -67q-63 0 -109.5 42t-46.5 101zM561 594h340v246q0 86 -20.5 138t-56.5 71.5t-91 19.5q-88 0 -130 -51t-42 -182v-242z" />
<glyph unicode="&#xc3;" horiz-adv-x="1458" d="M88 633q0 141 29.5 259t80 200t114 144t138 97t145.5 52.5t142 17.5q86 0 170 -23.5t170 -81t150.5 -142.5t105.5 -220t41 -303q0 -270 -19.5 -400.5t-65.5 -181.5t-142 -51q-135 0 -190.5 49t-55.5 154v108h-340v-108q0 -104 -55 -153.5t-191 -49.5q-57 0 -94 16.5 t-64.5 55.5t-41 113.5t-20.5 180t-7 267.5zM324 1704q0 92 52 160.5t144 68.5q168 0 348 -125q0 25 12.5 47.5t32 40t48 27.5t59.5 10q86 0 116.5 -42t30.5 -126q0 -90 -52 -160.5t-146 -70.5q-61 0 -118.5 19.5t-92.5 43t-73 44t-65 20.5q0 -53 -44 -90t-105 -37 q-45 0 -76 12.5t-46 37t-20 52t-5 68.5zM561 594h340v246q0 86 -20.5 138t-56.5 71.5t-91 19.5q-88 0 -130 -51t-42 -182v-242z" />
<glyph unicode="&#xc4;" horiz-adv-x="1458" d="M88 633q0 141 29.5 259t80 200t114 144t138 97t145.5 52.5t142 17.5q86 0 170 -23.5t170 -81t150.5 -142.5t105.5 -220t41 -303q0 -270 -19.5 -400.5t-65.5 -181.5t-142 -51q-135 0 -190.5 49t-55.5 154v108h-340v-108q0 -104 -55 -153.5t-191 -49.5q-57 0 -94 16.5 t-64.5 55.5t-41 113.5t-20.5 180t-7 267.5zM289 1686q0 -78 60.5 -114t152.5 -36q106 0 160.5 33t54.5 117q0 150 -215 149q-102 0 -157.5 -41.5t-55.5 -107.5zM561 594h340v246q0 86 -20.5 138t-56.5 71.5t-91 19.5q-88 0 -130 -51t-42 -182v-242zM783 1686q0 -78 60 -114 t153 -36q70 0 113.5 12.5t72.5 46t29 91.5q0 150 -215 149q-68 0 -117 -19.5t-72.5 -53t-23.5 -76.5z" />
<glyph unicode="&#xc5;" horiz-adv-x="1458" d="M88 633q0 141 29.5 259t80 200t114 144t138 97t145.5 52.5t142 17.5q86 0 170 -23.5t170 -81t150.5 -142.5t105.5 -220t41 -303q0 -270 -19.5 -400.5t-65.5 -181.5t-142 -51q-135 0 -190.5 49t-55.5 154v108h-340v-108q0 -104 -55 -153.5t-191 -49.5q-57 0 -94 16.5 t-64.5 55.5t-41 113.5t-20.5 180t-7 267.5zM416 1798q0 131 94 208t242 77q72 0 133 -19.5t106 -55.5t70 -90t25 -120q0 -129 -94.5 -203.5t-239 -74.5t-240.5 74.5t-96 203.5zM561 594h340v246q0 86 -20.5 138t-56.5 71.5t-91 19.5q-88 0 -130 -51t-42 -182v-242zM686 1800 q0 -27 7.5 -50.5t22.5 -38.5t38 -15q31 0 46 30.5t15 73.5q0 27 -6 51.5t-20.5 41t-34.5 16.5q-31 0 -49.5 -33t-18.5 -76z" />
<glyph unicode="&#xc6;" horiz-adv-x="1929" d="M96 319q0 -188 50.5 -253.5t177.5 -65.5q119 0 173 37t58 115v170l279 -3q2 -178 56 -248.5t175 -70.5h2h590q119 0 177 39t58 137q0 59 -23.5 93t-69.5 47.5t-122 13.5l-372 2v217h260q111 0 163 29.5t52 99.5q0 84 -44 118.5t-153 34.5h-280v240h374q115 0 165 36 t50 126q0 94 -58 132t-177 38h-791q-119 0 -220 -24.5t-195.5 -81t-164 -143.5t-115.5 -220t-60 -301q-14 -193 -15 -314zM582 584q10 170 20 250q14 129 80 181t154 52l2 -483h-256z" />
<glyph unicode="&#xc7;" horiz-adv-x="1603" d="M104 698q0 332 199 524.5t520 192.5q164 0 303.5 -55t221.5 -153.5t82 -215.5q0 -135 -90.5 -244.5t-233.5 -109.5q-82 0 -147.5 45t-65.5 129q0 39 38 108.5t38 98.5q0 43 -36 73.5t-85 30.5q-98 0 -161.5 -111.5t-63.5 -252.5q0 -109 41 -196t118.5 -138t180.5 -51 q76 0 145.5 29.5t112.5 65.5t89 65.5t81 29.5q45 0 77.5 -35.5t32.5 -74.5q0 -43 -25.5 -100.5t-81 -122t-129 -119t-183 -90t-230.5 -35.5q-160 0 -296 48t-236.5 137t-158 224t-57.5 303zM512 -415q0 47 33.5 91t68.5 44q14 0 43 -12.5t39 -12.5q18 0 32.5 16.5t14.5 38.5 q0 18 -40 48t-40 53q0 12 16.5 51t32.5 70l17 32h266q-43 -84 -43 -108q0 -15 27 -27q86 -43 86 -151q0 -125 -86 -202t-203 -77q-33 0 -75 8.5t-86 23.5t-73.5 45t-29.5 69z" />
<glyph unicode="&#xc8;" horiz-adv-x="1376" d="M141 293v864q0 246 234 246h663q119 0 177.5 -37t58.5 -133q0 -90 -50 -126t-165 -36h-447v-240h353q109 0 152.5 -34.5t43.5 -118.5q0 -70 -52 -99.5t-163 -29.5h-332v-217l445 -2q115 0 165 -34t50 -120q0 -98 -58.5 -137t-177.5 -39h-663q-121 0 -177.5 64.5 t-56.5 228.5zM274 1786q0 -115 142 -168l276 -92q55 -18 103 -19q45 0 80.5 18.5t54 49.5t18.5 67q0 39 -19.5 72t-39 48.5t-57.5 39.5q-8 6 -13 8l-258 164q-49 29 -108 29q-80 0 -129.5 -69.5t-49.5 -147.5z" />
<glyph unicode="&#xc9;" horiz-adv-x="1376" d="M141 293v864q0 246 234 246h663q119 0 177.5 -37t58.5 -133q0 -90 -50 -126t-165 -36h-447v-240h353q109 0 152.5 -34.5t43.5 -118.5q0 -70 -52 -99.5t-163 -29.5h-332v-217l445 -2q115 0 165 -34t50 -120q0 -98 -58.5 -137t-177.5 -39h-663q-121 0 -177.5 64.5 t-56.5 228.5zM403 1669q0 27 9.5 50.5t16.5 34.5t34 32.5t30 25t40 25.5l258 164q49 29 108 29q80 0 129 -70t49 -148q0 -115 -141 -167l-277 -93q-55 -18 -102 -18q-45 0 -81 18.5t-54.5 49t-18.5 67.5z" />
<glyph unicode="&#xca;" horiz-adv-x="1376" d="M141 293v864q0 246 234 246h663q119 0 177.5 -37t58.5 -133q0 -90 -50 -126t-165 -36h-447v-240h353q109 0 152.5 -34.5t43.5 -118.5q0 -70 -52 -99.5t-163 -29.5h-332v-217l445 -2q115 0 165 -34t50 -120q0 -98 -58.5 -137t-177.5 -39h-663q-121 0 -177.5 64.5 t-56.5 228.5zM295 1675q0 14 2 27.5t8 26t12.5 22.5t16.5 23.5t16 20.5t17.5 20.5t17.5 19.5q150 174 313 174q51 0 96.5 -13.5t85.5 -41t61 -46t56 -53.5q111 -111 111 -180q0 -59 -49 -103t-107 -44q-53 0 -116 65q-25 25 -56.5 64t-47 53t-32.5 14q-16 0 -34.5 -17 t-45 -53t-45.5 -55q-66 -68 -124 -67q-63 0 -109.5 42t-46.5 101z" />
<glyph unicode="&#xcb;" horiz-adv-x="1376" d="M141 293v864q0 246 234 246h663q119 0 177.5 -37t58.5 -133q0 -90 -50 -126t-165 -36h-447v-240h353q109 0 152.5 -34.5t43.5 -118.5q0 -70 -52 -99.5t-163 -29.5h-332v-217l445 -2q115 0 165 -34t50 -120q0 -98 -58.5 -137t-177.5 -39h-663q-121 0 -177.5 64.5 t-56.5 228.5zM233 1692q0 -78 60.5 -114t152.5 -36q106 0 160.5 33t54.5 117q0 150 -215 149q-102 0 -157.5 -41.5t-55.5 -107.5zM727 1692q0 -78 60 -114t153 -36q70 0 113.5 12.5t72.5 46t29 91.5q0 150 -215 149q-68 0 -117 -19.5t-72.5 -53t-23.5 -76.5z" />
<glyph unicode="&#xcc;" horiz-adv-x="745" d="M-54 1786q0 -115 142 -168l276 -92q55 -18 103 -19q45 0 80.5 18.5t54 49.5t18.5 67q0 39 -19.5 72t-39 48.5t-57.5 39.5q-8 6 -13 8l-258 164q-49 29 -108 29q-80 0 -129.5 -69.5t-49.5 -147.5zM143 291v866q0 246 232 246q119 0 179 -45t60 -182v-869 q0 -160 -59 -233.5t-180 -73.5q-119 0 -175.5 63.5t-56.5 227.5z" />
<glyph unicode="&#xcd;" horiz-adv-x="745" d="M126 1669q0 27 9.5 50.5t16.5 34.5t34 32.5t30 25t40 25.5l258 164q49 29 108 29q80 0 129 -70t49 -148q0 -115 -141 -167l-277 -93q-55 -18 -102 -18q-45 0 -81 18.5t-54.5 49t-18.5 67.5zM143 291v866q0 246 232 246q119 0 179 -45t60 -182v-869q0 -160 -59 -233.5 t-180 -73.5q-119 0 -175.5 63.5t-56.5 227.5z" />
<glyph unicode="&#xce;" horiz-adv-x="745" d="M-14 1675q0 14 2 27.5t8 26t12.5 22.5t16.5 23.5t16 20.5t17.5 20.5t17.5 19.5q150 174 313 174q51 0 96.5 -13.5t85.5 -41t61 -46t56 -53.5q111 -111 111 -180q0 -59 -49 -103t-107 -44q-53 0 -116 65q-25 25 -56.5 64t-47 53t-32.5 14q-16 0 -34.5 -17t-45 -53 t-45.5 -55q-66 -68 -124 -67q-63 0 -109.5 42t-46.5 101zM143 291v866q0 246 232 246q119 0 179 -45t60 -182v-869q0 -160 -59 -233.5t-180 -73.5q-119 0 -175.5 63.5t-56.5 227.5z" />
<glyph unicode="&#xcf;" horiz-adv-x="745" d="M-59 1690q0 -78 60.5 -114t152.5 -36q106 0 160.5 33t54.5 117q0 150 -215 149q-102 0 -157.5 -41.5t-55.5 -107.5zM143 291v866q0 246 232 246q119 0 179 -45t60 -182v-869q0 -160 -59 -233.5t-180 -73.5q-119 0 -175.5 63.5t-56.5 227.5zM435 1690q0 -78 60 -114 t153 -36q70 0 113.5 12.5t72.5 46t29 91.5q0 150 -215 149q-68 0 -117 -19.5t-72.5 -53t-23.5 -76.5z" />
<glyph unicode="&#xd0;" horiz-adv-x="1474" d="M-25 670q0 137 164 143v344q0 244 234 244h301q319 0 512.5 -184.5t193.5 -507.5q0 -104 -19.5 -202.5t-64.5 -192t-112.5 -162t-172 -110.5t-235.5 -42h-403q-125 0 -179.5 63.5t-54.5 229.5v244q-164 0 -164 133zM612 279q53 0 93 11t76 40.5t58.5 79t36 126 t13.5 181.5q0 117 -20.5 197.5t-59.5 122.5t-85 59.5t-112 19.5v-303q59 -4 94 -20.5t50.5 -48t15.5 -82.5q0 -31 -9 -52.5t-29.5 -37t-50.5 -23.5t-71 -10v-260z" />
<glyph unicode="&#xd1;" horiz-adv-x="1583" d="M137 178v989q0 117 59.5 176.5t170.5 59.5q76 0 122 -23.5t109 -85.5l518 -516v447q0 88 44 132t120 44q88 0 127 -41t39 -133v-1032q0 -90 -53.5 -142.5t-155.5 -52.5q-27 0 -53.5 6t-56 22.5t-52 31t-56.5 44t-53.5 47t-60.5 56.5t-59 57l-375 354v-444 q0 -100 -38 -137t-120 -37q-90 0 -133 41t-43 137zM361 1704q0 92 52 160.5t144 68.5q168 0 348 -125q0 25 12.5 47.5t32 40t48 27.5t59.5 10q86 0 116.5 -42t30.5 -126q0 -90 -52 -160.5t-146 -70.5q-61 0 -118.5 19.5t-92.5 43t-73 44t-65 20.5q0 -53 -44 -90t-105 -37 q-45 0 -76 12.5t-46 37t-20 52t-5 68.5z" />
<glyph unicode="&#xd2;" horiz-adv-x="1648" d="M104 692q0 332 200 527.5t517.5 195.5t518 -195.5t200.5 -527.5q0 -219 -97 -380.5t-259 -242.5t-364 -81t-362.5 81t-257 242.5t-96.5 380.5zM350 1786q0 -115 142 -168l276 -92q55 -18 103 -19q45 0 80.5 18.5t54 49.5t18.5 67q0 39 -19.5 72t-39 48.5t-57.5 39.5 q-8 6 -13 8l-258 164q-49 29 -108 29q-80 0 -129.5 -69.5t-49.5 -147.5zM608 692q0 -102 23.5 -192t73.5 -151.5t116 -61.5q70 0 120 61.5t71.5 151.5t21.5 192q0 104 -22.5 197.5t-72.5 159t-118 65.5q-66 0 -115 -65.5t-73.5 -159.5t-24.5 -197z" />
<glyph unicode="&#xd3;" horiz-adv-x="1648" d="M104 692q0 332 200 527.5t517.5 195.5t518 -195.5t200.5 -527.5q0 -219 -97 -380.5t-259 -242.5t-364 -81t-362.5 81t-257 242.5t-96.5 380.5zM581 1669q0 27 9.5 50.5t16.5 34.5t34 32.5t30 25t40 25.5l258 164q49 29 108 29q80 0 129 -70t49 -148q0 -115 -141 -167 l-277 -93q-55 -18 -102 -18q-45 0 -81 18.5t-54.5 49t-18.5 67.5zM608 692q0 -102 23.5 -192t73.5 -151.5t116 -61.5q70 0 120 61.5t71.5 151.5t21.5 192q0 104 -22.5 197.5t-72.5 159t-118 65.5q-66 0 -115 -65.5t-73.5 -159.5t-24.5 -197z" />
<glyph unicode="&#xd4;" horiz-adv-x="1648" d="M104 692q0 332 200 527.5t517.5 195.5t518 -195.5t200.5 -527.5q0 -219 -97 -380.5t-259 -242.5t-364 -81t-362.5 81t-257 242.5t-96.5 380.5zM424 1675q0 14 2 27.5t8 26t12.5 22.5t16.5 23.5t16 20.5t17.5 20.5t17.5 19.5q150 174 313 174q51 0 96.5 -13.5t85.5 -41 t61 -46t56 -53.5q111 -111 111 -180q0 -59 -49 -103t-107 -44q-53 0 -116 65q-25 25 -56.5 64t-47 53t-32.5 14q-16 0 -34.5 -17t-45 -53t-45.5 -55q-66 -68 -124 -67q-63 0 -109.5 42t-46.5 101zM608 692q0 -102 23.5 -192t73.5 -151.5t116 -61.5q70 0 120 61.5t71.5 151.5 t21.5 192q0 104 -22.5 197.5t-72.5 159t-118 65.5q-66 0 -115 -65.5t-73.5 -159.5t-24.5 -197z" />
<glyph unicode="&#xd5;" horiz-adv-x="1648" d="M104 692q0 332 200 527.5t517.5 195.5t518 -195.5t200.5 -527.5q0 -219 -97 -380.5t-259 -242.5t-364 -81t-362.5 81t-257 242.5t-96.5 380.5zM414 1704q0 92 52 160.5t144 68.5q168 0 348 -125q0 25 12.5 47.5t32 40t48 27.5t59.5 10q86 0 116.5 -42t30.5 -126 q0 -90 -52 -160.5t-146 -70.5q-61 0 -118.5 19.5t-92.5 43t-73 44t-65 20.5q0 -53 -44 -90t-105 -37q-45 0 -76 12.5t-46 37t-20 52t-5 68.5zM608 692q0 -102 23.5 -192t73.5 -151.5t116 -61.5q70 0 120 61.5t71.5 151.5t21.5 192q0 104 -22.5 197.5t-72.5 159t-118 65.5 q-66 0 -115 -65.5t-73.5 -159.5t-24.5 -197z" />
<glyph unicode="&#xd6;" horiz-adv-x="1648" d="M104 692q0 332 200 527.5t517.5 195.5t518 -195.5t200.5 -527.5q0 -219 -97 -380.5t-259 -242.5t-364 -81t-362.5 81t-257 242.5t-96.5 380.5zM375 1692q0 -78 60.5 -114t152.5 -36q106 0 160.5 33t54.5 117q0 150 -215 149q-102 0 -157.5 -41.5t-55.5 -107.5zM608 692 q0 -102 23.5 -192t73.5 -151.5t116 -61.5q70 0 120 61.5t71.5 151.5t21.5 192q0 104 -22.5 197.5t-72.5 159t-118 65.5q-66 0 -115 -65.5t-73.5 -159.5t-24.5 -197zM869 1692q0 -78 60 -114t153 -36q70 0 113.5 12.5t72.5 46t29 91.5q0 150 -215 149q-68 0 -117 -19.5 t-72.5 -53t-23.5 -76.5z" />
<glyph unicode="&#xd7;" horiz-adv-x="1232" d="M126 257q0 18 15 41.5t46 51t53.5 48t58.5 48t44 34.5q-15 11 -42.5 34.5t-46 40t-42.5 41t-37.5 47.5t-25 53t-11.5 60q0 63 61 116.5t126 53.5q35 0 68 -14.5t63.5 -41t55 -53.5t55 -63t50.5 -54q21 18 63 68t70 78.5t72 54t87 25.5q26 0 53.5 -10t50.5 -27.5t42 -39 t29.5 -46t10.5 -48.5q0 -32 -11 -62t-42.5 -66t-45 -52t-58.5 -55l-45 -40q5 -7 42 -34.5t60 -48t52 -48t45 -50.5t16 -42q0 -76 -74 -142t-155 -66q-18 0 -37.5 5.5t-35 12t-36 21t-32.5 24t-33 29.5t-29 28.5t-30.5 32.5t-28.5 30q-3 -6 -23.5 -26t-27 -28t-25.5 -27 t-29.5 -27t-28.5 -23t-32 -21.5t-30.5 -15t-33 -12t-33.5 -3.5q-81 0 -154.5 66t-73.5 142z" />
<glyph unicode="&#xd8;" horiz-adv-x="1648" d="M27 111q0 59 59 116l1184 1123q84 80 139 80q47 0 96 -41t49 -91q0 -68 -90 -153l-1177 -1116q-70 -66 -125 -66q-49 0 -92 48t-43 100zM104 692q0 332 200 527.5t517.5 195.5t518 -195.5t200.5 -527.5q0 -219 -97 -380.5t-259 -242.5t-363 -81q-150 0 -280.5 47 t-228 135t-153 223t-55.5 299zM608 692q0 -102 23.5 -192t73.5 -151.5t116 -61.5q53 0 95 35.5t67 94t38 129t13 146.5q0 104 -22.5 197.5t-72.5 159t-118 65.5q-66 0 -115 -65.5t-73.5 -159.5t-24.5 -197z" />
<glyph unicode="&#xd9;" horiz-adv-x="1509" d="M119 547v610q0 109 64.5 177.5t162.5 68.5q121 0 183.5 -45t62.5 -182v-668q2 -66 21.5 -104.5t52 -54t84 -15.5t84 12t48 39t20.5 53.5t5 69.5v670q0 70 17.5 116.5t53.5 69t74 31t91 8.5q119 0 178 -57.5t59 -188.5v-610q0 -299 -144 -429t-486 -130q-326 0 -478.5 139 t-152.5 420zM319 1786q0 -115 142 -168l276 -92q55 -18 103 -19q45 0 80.5 18.5t54 49.5t18.5 67q0 39 -19.5 72t-39 48.5t-57.5 39.5q-8 6 -13 8l-258 164q-49 29 -108 29q-80 0 -129.5 -69.5t-49.5 -147.5z" />
<glyph unicode="&#xda;" horiz-adv-x="1509" d="M119 547v610q0 109 64.5 177.5t162.5 68.5q121 0 183.5 -45t62.5 -182v-668q2 -66 21.5 -104.5t52 -54t84 -15.5t84 12t48 39t20.5 53.5t5 69.5v670q0 70 17.5 116.5t53.5 69t74 31t91 8.5q119 0 178 -57.5t59 -188.5v-610q0 -299 -144 -429t-486 -130q-326 0 -478.5 139 t-152.5 420zM544 1669q0 27 9.5 50.5t16.5 34.5t34 32.5t30 25t40 25.5l258 164q49 29 108 29q80 0 129 -70t49 -148q0 -115 -141 -167l-277 -93q-55 -18 -102 -18q-45 0 -81 18.5t-54.5 49t-18.5 67.5z" />
<glyph unicode="&#xdb;" horiz-adv-x="1509" d="M119 547v610q0 109 64.5 177.5t162.5 68.5q121 0 183.5 -45t62.5 -182v-668q2 -66 21.5 -104.5t52 -54t84 -15.5t84 12t48 39t20.5 53.5t5 69.5v670q0 70 17.5 116.5t53.5 69t74 31t91 8.5q119 0 178 -57.5t59 -188.5v-610q0 -299 -144 -429t-486 -130q-326 0 -478.5 139 t-152.5 420zM348 1675q0 14 2 27.5t8 26t12.5 22.5t16.5 23.5t16 20.5t17.5 20.5t17.5 19.5q150 174 313 174q51 0 96.5 -13.5t85.5 -41t61 -46t56 -53.5q111 -111 111 -180q0 -59 -49 -103t-107 -44q-53 0 -116 65q-25 25 -56.5 64t-47 53t-32.5 14q-16 0 -34.5 -17 t-45 -53t-45.5 -55q-66 -68 -124 -67q-63 0 -109.5 42t-46.5 101z" />
<glyph unicode="&#xdc;" horiz-adv-x="1509" d="M119 547v610q0 109 64.5 177.5t162.5 68.5q121 0 183.5 -45t62.5 -182v-668q2 -66 21.5 -104.5t52 -54t84 -15.5t84 12t48 39t20.5 53.5t5 69.5v670q0 70 17.5 116.5t53.5 69t74 31t91 8.5q119 0 178 -57.5t59 -188.5v-610q0 -299 -144 -429t-486 -130q-326 0 -478.5 139 t-152.5 420zM285 1690q0 -78 60.5 -114t152.5 -36q106 0 160.5 33t54.5 117q0 150 -215 149q-102 0 -157.5 -41.5t-55.5 -107.5zM779 1690q0 -78 60 -114t153 -36q70 0 113.5 12.5t72.5 46t29 91.5q0 150 -215 149q-68 0 -117 -19.5t-72.5 -53t-23.5 -76.5z" />
<glyph unicode="&#xdd;" horiz-adv-x="1456" d="M86 1163q0 113 86 178q82 61 145 62q88 0 158 -80l250 -291l209 244q104 125 223 125q88 0 137 -49q84 -84 84 -162q0 -43 -28.5 -91t-92.5 -124l-294 -361v-307q0 -166 -59.5 -236.5t-182.5 -70.5q-119 0 -174 64.5t-58 228.5l-2 332l-315 368q-86 98 -86 170zM473 1669 q0 27 9.5 50.5t16.5 34.5t34 32.5t30 25t40 25.5l258 164q49 29 108 29q80 0 129 -70t49 -148q0 -115 -141 -167l-277 -93q-55 -18 -102 -18q-45 0 -81 18.5t-54.5 49t-18.5 67.5z" />
<glyph unicode="&#xde;" horiz-adv-x="1331" d="M143 291v866q0 246 232 246q111 0 170 -38t67 -151q272 -10 430 -153t158 -365q0 -217 -159.5 -357t-436.5 -146q-37 -193 -229 -193q-119 0 -175.5 63.5t-56.5 227.5zM614 551q80 8 135.5 45t55.5 98q0 63 -55.5 102.5t-135.5 47.5v-293z" />
<glyph unicode="&#xdf;" horiz-adv-x="1433" d="M96 293q0 -111 27 -176.5t74 -91t122 -25.5q115 0 170.5 61.5t55.5 204.5v611q0 57 20.5 100t55 65.5t72.5 32.5t77 10q63 0 114.5 -24.5t51.5 -77.5q0 -49 -31 -67.5t-110 -18.5q-59 0 -95 -38t-36 -99q0 -53 18 -87t59 -51.5t105 -17.5q63 0 87.5 -23.5t24.5 -66.5 q0 -37 -22.5 -56.5t-47 -23.5t-61.5 -4t-60.5 -2t-50 -13.5t-40.5 -30.5t-24.5 -55t-10.5 -87q0 -123 68.5 -183.5t228.5 -60.5q201 0 320.5 111.5t119.5 289.5q0 141 -40 216t-138 145q23 25 41.5 53.5t31.5 62t21.5 71.5t8.5 79q0 92 -35 165t-92.5 119t-135 75.5 t-156.5 42t-163 12.5q-121 0 -230.5 -31t-199.5 -91.5t-142.5 -160.5t-52.5 -227v-637z" />
<glyph unicode="&#xe0;" d="M86 481q0 233 105.5 371.5t269.5 138.5q166 0 307 -117q55 102 178 103q111 0 172.5 -48t61.5 -177v-533q0 -123 -51.5 -171t-180.5 -48q-135 0 -178 76q-131 -88 -309 -88q-162 0 -268.5 132t-106.5 361zM316 1371q0 -102 127 -152l250 -84q51 -16 94 -16q61 0 99 35.5 t38 87.5q0 35 -17.5 64.5t-35 43.5t-51.5 37q-6 4 -11 8l-235 148q-45 27 -99 26q-72 0 -115.5 -63.5t-43.5 -134.5zM530 481q0 -94 31 -167.5t86 -73.5q57 0 92 55v383q-35 59 -90 59q-53 0 -86 -77.5t-33 -178.5z" />
<glyph unicode="&#xe1;" d="M86 481q0 233 105.5 371.5t269.5 138.5q166 0 307 -117q55 102 178 103q111 0 172.5 -48t61.5 -177v-533q0 -123 -51.5 -171t-180.5 -48q-135 0 -178 76q-131 -88 -309 -88q-162 0 -268.5 132t-106.5 361zM418 1242q0 74 82 131l32 22l236 148q45 27 98 26 q72 0 116 -63.5t44 -134.5q0 -102 -127 -152l-250 -84q-51 -16 -94 -16q-41 0 -73 16t-48 44t-16 63zM530 481q0 -94 31 -167.5t86 -73.5q57 0 92 55v383q-35 59 -90 59q-53 0 -86 -77.5t-33 -178.5z" />
<glyph unicode="&#xe2;" d="M86 481q0 233 105.5 371.5t269.5 138.5q166 0 307 -117q55 102 178 103q111 0 172.5 -48t61.5 -177v-533q0 -123 -51.5 -171t-180.5 -48q-135 0 -178 76q-131 -88 -309 -88q-162 0 -268.5 132t-106.5 361zM293 1268q0 12 2 24t8 25q6 12 11 21t16 22q10 12 15 19t17 21 q12 13 17 19q141 164 297 164q66 0 125 -27t87 -50t73 -68q104 -104 104 -170q0 -57 -46 -100q-46 -42 -101 -42q-49 0 -111 62q-8 10 -19 21q-10 11 -17 19l-15 15l-14 14q-5 6 -12 13q-7 6 -12 9t-10 7t-10 6q-4 2 -9 3t-11 1q-12 0 -28 -10q-15 -10 -25 -20t-32 -34 t-34 -38q-61 -63 -119 -64q-59 0 -103 40t-44 98zM530 481q0 -94 31 -167.5t86 -73.5q57 0 92 55v383q-35 59 -90 59q-53 0 -86 -77.5t-33 -178.5z" />
<glyph unicode="&#xe3;" d="M86 481q0 233 105.5 371.5t269.5 138.5q166 0 307 -117q55 102 178 103q111 0 172.5 -48t61.5 -177v-533q0 -123 -51.5 -171t-180.5 -48q-135 0 -178 76q-131 -88 -309 -88q-162 0 -268.5 132t-106.5 361zM277 1298q0 86 50 151.5t138 65.5q76 0 159 -29.5t128 -60.5 l45 -30q0 51 41 85.5t103 34.5q82 0 110.5 -40t28.5 -119q0 -86 -50.5 -154t-138.5 -68q-74 0 -139 31t-113 60.5t-79 29.5q0 -51 -42 -86t-102 -35q-82 0 -110.5 41t-28.5 123zM530 481q0 -94 31 -167.5t86 -73.5q57 0 92 55v383q-35 59 -90 59q-53 0 -86 -77.5t-33 -178.5 z" />
<glyph unicode="&#xe4;" d="M86 481q0 233 105.5 371.5t269.5 138.5q166 0 307 -117q55 102 178 103q111 0 172.5 -48t61.5 -177v-533q0 -123 -51.5 -171t-180.5 -48q-135 0 -178 76q-131 -88 -309 -88q-162 0 -268.5 132t-106.5 361zM229 1238q0 -78 60.5 -113t154.5 -35q104 0 159 33t55 115 q0 150 -214 150q-102 0 -158.5 -41t-56.5 -109zM530 481q0 -94 31 -167.5t86 -73.5q57 0 92 55v383q-35 59 -90 59q-53 0 -86 -77.5t-33 -178.5zM722 1238q0 -78 60.5 -113t154.5 -35q104 0 159 33t55 115q0 150 -214 150q-102 0 -158.5 -41t-56.5 -109z" />
<glyph unicode="&#xe5;" d="M86 481q0 233 105.5 371.5t269.5 138.5q166 0 307 -117q55 102 178 103q111 0 172.5 -48t61.5 -177v-533q0 -123 -51.5 -171t-180.5 -48q-135 0 -178 76q-131 -88 -309 -88q-162 0 -268.5 132t-106.5 361zM328 1424q0 133 94 210t242 77q96 0 172 -34t119 -99.5 t43 -153.5q0 -86 -45.5 -149.5t-120 -95.5t-168.5 -32q-143 0 -239.5 75t-96.5 202zM530 481q0 -94 31 -167.5t86 -73.5q57 0 92 55v383q-35 59 -90 59q-53 0 -86 -77.5t-33 -178.5zM598 1427q0 -42 17.5 -74t49.5 -32t47 32t15 74t-16.5 74.5t-44.5 32.5q-31 0 -49.5 -32.5 t-18.5 -74.5z" />
<glyph unicode="&#xe6;" horiz-adv-x="1855" d="M82 481q0 -229 108.5 -361t266.5 -132q287 0 403 149q61 -53 120.5 -85t135.5 -48t176 -16q111 0 207 36.5t154.5 89t91.5 104.5t33 89q0 31 -19.5 51.5t-54.5 20.5q-20 0 -66.5 -22.5t-85.5 -32.5q-92 -23 -180 -23q-82 0 -135 38t-74 103l289 2q150 2 226.5 70 t76.5 160q0 96 -45 164.5t-150.5 110.5t-267.5 42q-141 0 -239.5 -38.5t-186.5 -110.5q-113 78 -205 113.5t-204 35.5q-164 0 -269.5 -138t-105.5 -372zM547 481q0 100 32.5 178t86.5 78q55 0 90 -57q-39 -96 -39 -211q0 -98 35 -182q-35 -47 -88 -47q-37 0 -65 37.5t-40 91 t-12 112.5zM1153 573q8 102 48 172t83 70q78 0 78 -129q0 -47 -10 -74q-16 -37 -45 -37q-13 0 -154 -2z" />
<glyph unicode="&#xe7;" horiz-adv-x="1226" d="M82 496q0 152 74.5 265t206 171.5t301.5 58.5q162 0 267 -38t150 -101.5t45 -151.5q0 -39 -15 -79.5t-47 -81.5t-93.5 -67t-143.5 -26q-37 0 -60.5 4.5t-49 17.5t-37.5 44t-12 78q0 41 15 99.5t15 76.5q0 47 -53 47q-39 0 -69.5 -43t-47 -107.5t-16.5 -134.5 q0 -102 62.5 -165.5t168.5 -63.5q104 0 181 25q31 8 74.5 30.5t62.5 22.5q29 0 47 -10.5t25.5 -24.5t7.5 -31q0 -29 -19.5 -69.5t-60.5 -85.5t-95.5 -83t-134 -62.5t-167.5 -24.5q-254 0 -418 136t-164 374zM324 -407q0 47 33.5 91t68.5 44q14 0 43 -12.5t39 -12.5 q18 0 32.5 16.5t14.5 38.5q0 18 -40 48t-40 53q0 12 16.5 51t32.5 70l17 32h266q-43 -84 -43 -108q0 -15 27 -27q86 -43 86 -151q0 -125 -86 -202t-203 -77q-33 0 -75 8.5t-86 23.5t-73.5 45t-29.5 69z" />
<glyph unicode="&#xe8;" horiz-adv-x="1218" d="M80 469q0 242 160.5 382t414.5 140q240 0 351.5 -85t111.5 -232q0 -29 -7 -55.5t-22.5 -52t-41 -47t-58.5 -39t-78 -27t-96 -9.5l-289 -2q20 -66 73.5 -103.5t135.5 -37.5q88 0 180 23q39 10 85.5 32.5t66.5 22.5q35 0 54.5 -20.5t19.5 -51.5q0 -37 -33 -89t-91.5 -104.5 t-154.5 -89t-207 -36.5q-250 0 -412.5 129t-162.5 352zM287 1371q0 -102 127 -152l250 -84q51 -16 94 -16q61 0 99 35.5t38 87.5q0 35 -17.5 64.5t-35 43.5t-51.5 37q-6 4 -11 8l-235 148q-45 27 -99 26q-72 0 -115.5 -63.5t-43.5 -134.5zM516 573q141 2 154 2q31 0 45 37 q10 27 10 74q0 129 -78 129q-29 0 -56.5 -30.5t-48 -87t-26.5 -124.5z" />
<glyph unicode="&#xe9;" horiz-adv-x="1218" d="M80 469q0 242 160.5 382t414.5 140q240 0 351.5 -85t111.5 -232q0 -29 -7 -55.5t-22.5 -52t-41 -47t-58.5 -39t-78 -27t-96 -9.5l-289 -2q20 -66 73.5 -103.5t135.5 -37.5q88 0 180 23q39 10 85.5 32.5t66.5 22.5q35 0 54.5 -20.5t19.5 -51.5q0 -37 -33 -89t-91.5 -104.5 t-154.5 -89t-207 -36.5q-250 0 -412.5 129t-162.5 352zM404 1242q0 74 82 131l32 22l236 148q45 27 98 26q72 0 116 -63.5t44 -134.5q0 -102 -127 -152l-250 -84q-51 -16 -94 -16q-41 0 -73 16t-48 44t-16 63zM516 573q141 2 154 2q31 0 45 37q10 27 10 74q0 129 -78 129 q-29 0 -56.5 -30.5t-48 -87t-26.5 -124.5z" />
<glyph unicode="&#xea;" horiz-adv-x="1218" d="M80 469q0 242 160.5 382t414.5 140q240 0 351.5 -85t111.5 -232q0 -29 -7 -55.5t-22.5 -52t-41 -47t-58.5 -39t-78 -27t-96 -9.5l-289 -2q20 -66 73.5 -103.5t135.5 -37.5q88 0 180 23q39 10 85.5 32.5t66.5 22.5q35 0 54.5 -20.5t19.5 -51.5q0 -37 -33 -89t-91.5 -104.5 t-154.5 -89t-207 -36.5q-250 0 -412.5 129t-162.5 352zM242 1268q0 12 2 24t8 25q6 12 11 21t16 22q10 12 15 19t17 21q12 13 17 19q141 164 297 164q66 0 125 -27t87 -50q27 -23 72 -68q104 -104 105 -170q0 -57 -46 -100q-46 -42 -102 -42q-49 0 -110 62q-8 10 -19 21 q-10 11 -17 19l-15 15l-14 14q-5 6 -12 13q-7 6 -12 9t-11 7q-5 4 -9 6t-9 3t-11 1q-12 0 -28 -10q-15 -10 -26 -20q-10 -10 -31 -34q-22 -24 -34 -38q-61 -63 -119 -64q-59 0 -103 40t-44 98zM516 573q141 2 154 2q31 0 45 37q10 27 10 74q0 129 -78 129q-29 0 -56.5 -30.5 t-48 -87t-26.5 -124.5z" />
<glyph unicode="&#xeb;" horiz-adv-x="1218" d="M80 469q0 242 160.5 382t414.5 140q240 0 351.5 -85t111.5 -232q0 -29 -7 -55.5t-22.5 -52t-41 -47t-58.5 -39t-78 -27t-96 -9.5l-289 -2q20 -66 73.5 -103.5t135.5 -37.5q88 0 180 23q39 10 85.5 32.5t66.5 22.5q35 0 54.5 -20.5t19.5 -51.5q0 -37 -33 -89t-91.5 -104.5 t-154.5 -89t-207 -36.5q-250 0 -412.5 129t-162.5 352zM180 1238q0 -78 60.5 -113t154.5 -35q104 0 159 33t55 115q0 150 -214 150q-102 0 -158.5 -41t-56.5 -109zM516 573q141 2 154 2q31 0 45 37q10 27 10 74q0 129 -78 129q-29 0 -56.5 -30.5t-48 -87t-26.5 -124.5z M673 1238q0 -78 60.5 -113t154.5 -35q104 0 159 33t55 115q0 150 -214 150q-102 0 -158.5 -41t-56.5 -109z" />
<glyph unicode="&#xec;" horiz-adv-x="579" d="M-86 1371q0 -102 127 -152l250 -84q51 -16 94 -16q61 0 99 35.5t38 87.5q0 35 -17.5 64.5t-35 43.5t-51.5 37q-6 4 -11 8l-235 148q-45 27 -99 26q-72 0 -115.5 -63.5t-43.5 -134.5zM68 242v503q0 104 56 168t150 64q111 0 172.5 -48t61.5 -177v-533q0 -123 -51 -171 t-181 -48q-84 0 -130 27.5t-62 78t-16 136.5z" />
<glyph unicode="&#xed;" horiz-adv-x="579" d="M54 1242q0 74 82 131l32 22l236 148q45 27 98 26q72 0 116 -63.5t44 -134.5q0 -102 -127 -152l-250 -84q-51 -16 -94 -16q-41 0 -73 16t-48 44t-16 63zM68 242v503q0 104 56 168t150 64q111 0 172.5 -48t61.5 -177v-533q0 -123 -51 -171t-181 -48q-84 0 -130 27.5t-62 78 t-16 136.5z" />
<glyph unicode="&#xee;" horiz-adv-x="579" d="M-86 1268q0 12 2 24t8 25q6 12 11 21t16 22q10 12 15 19t18 21q12 13 16 19q141 164 297 164q66 0 125 -27t87 -50t73 -68q104 -104 104 -170q0 -57 -46 -100q-46 -42 -101 -42q-49 0 -111 62q-8 10 -18 21t-18 19l-15 15t-13 14t-13 13q-7 6 -12 9t-10 7t-10 6 q-4 2 -9 3t-11 1q-12 0 -28 -10q-15 -10 -25 -20t-32 -34t-34 -38q-61 -63 -119 -64q-59 0 -103 40t-44 98zM68 242v503q0 104 56 168t150 64q111 0 172.5 -48t61.5 -177v-533q0 -123 -51 -171t-181 -48q-84 0 -130 27.5t-62 78t-16 136.5z" />
<glyph unicode="&#xef;" horiz-adv-x="579" d="M-162 1245q0 -78 60.5 -113t154.5 -35q104 0 159 33t55 115q0 150 -214 150q-102 0 -158.5 -41t-56.5 -109zM68 242v503q0 104 56 168t150 64q111 0 172.5 -48t61.5 -177v-533q0 -123 -51 -171t-181 -48q-84 0 -130 27.5t-62 78t-16 136.5zM331 1245q0 -78 60.5 -113 t154.5 -35q104 0 159 33t55 115q0 150 -214 150q-102 0 -158.5 -41t-56.5 -109z" />
<glyph unicode="&#xf0;" horiz-adv-x="1294" d="M90 483q0 164 80 281t215 173t311 56q-63 125 -155 166q-172 -90 -254 -90q-96 0 -97 78q0 94 189 129q-59 31 -99 73t-40 81q0 125 161 124q88 0 166 -32.5t176 -91.5q18 10 57.5 35.5t60 36.5t51 22.5t57.5 11.5q121 0 121 -84q0 -41 -35 -71.5t-129 -61.5 q133 -141 217 -341t84 -382q0 -297 -168 -463q-150 -147 -400 -147q-246 0 -407.5 133t-161.5 364zM539 485q0 -104 28.5 -183t81.5 -79q37 0 61.5 40t35 97t10.5 125q0 106 -27 187.5t-78 81.5q-35 0 -61.5 -41t-38.5 -100.5t-12 -127.5z" />
<glyph unicode="&#xf1;" horiz-adv-x="1261" d="M90 242v503q0 104 56.5 168t150.5 64q78 0 131 -22.5t80 -77.5q160 104 389 104q145 0 209.5 -114.5t64.5 -377.5q0 -129 -6 -209.5t-19 -139t-42 -87t-67 -41t-97 -12.5q-115 0 -165 43t-50 127l-2 381q0 115 -90 115q-43 0 -70.5 -36t-32.5 -95v-316q0 -125 -51 -172 t-180 -47q-121 0 -165 56.5t-44 185.5zM207 1298q0 86 50 151.5t138 65.5q76 0 159 -29.5t128 -60.5l45 -30q0 51 41 85.5t103 34.5q82 0 110.5 -40t28.5 -119q0 -86 -50.5 -154t-138.5 -68q-74 0 -139 31t-113 60.5t-79 29.5q0 -51 -42 -86t-102 -35q-82 0 -110.5 41 t-28.5 123z" />
<glyph unicode="&#xf2;" horiz-adv-x="1292" d="M80 483q0 233 159.5 370.5t409.5 137.5t407.5 -137t157.5 -371q0 -231 -160.5 -364t-404.5 -133q-160 0 -288 57t-204.5 172t-76.5 268zM295 1371q0 -102 127 -152l250 -84q51 -16 94 -16q61 0 99 35.5t38 87.5q0 35 -17.5 64.5t-35 43.5t-51.5 37q-6 4 -11 8l-235 148 q-45 27 -99 26q-72 0 -115.5 -63.5t-43.5 -134.5zM539 485q0 -104 28.5 -183t81.5 -79t80 78t27 184t-27 187.5t-78 81.5q-35 0 -61.5 -41t-38.5 -100.5t-12 -127.5z" />
<glyph unicode="&#xf3;" horiz-adv-x="1292" d="M80 483q0 233 159.5 370.5t409.5 137.5t407.5 -137t157.5 -371q0 -231 -160.5 -364t-404.5 -133q-160 0 -288 57t-204.5 172t-76.5 268zM463 1242q0 74 82 131l32 22l236 148q45 27 98 26q72 0 116 -63.5t44 -134.5q0 -102 -127 -152l-250 -84q-51 -16 -94 -16 q-41 0 -73 16t-48 44t-16 63zM539 485q0 -104 28.5 -183t81.5 -79t80 78t27 184t-27 187.5t-78 81.5q-35 0 -61.5 -41t-38.5 -100.5t-12 -127.5z" />
<glyph unicode="&#xf4;" horiz-adv-x="1292" d="M80 483q0 233 159.5 370.5t409.5 137.5t407.5 -137t157.5 -371q0 -231 -160.5 -364t-404.5 -133q-160 0 -288 57t-204.5 172t-76.5 268zM256 1268q0 12 2 24t8 25q6 12 12 21q5 9 15 22q10 12 15 19t18 21q12 13 16 19q141 164 297 164q66 0 125 -27t87 -50t73 -68 q104 -104 104 -170q0 -57 -46 -100q-46 -42 -101 -42q-49 0 -111 62q-8 10 -18 21t-18 19l-15 15t-13 14t-13 13q-7 6 -12 9t-10 7t-9 6t-10 3q-5 1 -11 1q-12 0 -28 -10q-15 -10 -25 -20t-32 -34t-34 -38q-61 -63 -119 -64q-59 0 -103 40t-44 98zM539 485q0 -104 28.5 -183 t81.5 -79t80 78t27 184t-27 187.5t-78 81.5q-35 0 -61.5 -41t-38.5 -100.5t-12 -127.5z" />
<glyph unicode="&#xf5;" horiz-adv-x="1292" d="M80 483q0 233 159.5 370.5t409.5 137.5t407.5 -137t157.5 -371q0 -231 -160.5 -364t-404.5 -133q-160 0 -288 57t-204.5 172t-76.5 268zM240 1298q0 86 50 151.5t138 65.5q76 0 159 -29.5t128 -60.5l45 -30q0 51 41 85.5t103 34.5q82 0 110.5 -40t28.5 -119 q0 -86 -50.5 -154t-138.5 -68q-74 0 -139 31t-113 60.5t-79 29.5q0 -51 -42 -86t-102 -35q-82 0 -110.5 41t-28.5 123zM539 485q0 -104 28.5 -183t81.5 -79t80 78t27 184t-27 187.5t-78 81.5q-35 0 -61.5 -41t-38.5 -100.5t-12 -127.5z" />
<glyph unicode="&#xf6;" horiz-adv-x="1292" d="M80 483q0 233 159.5 370.5t409.5 137.5t407.5 -137t157.5 -371q0 -231 -160.5 -364t-404.5 -133q-160 0 -288 57t-204.5 172t-76.5 268zM207 1236q0 -78 60.5 -113t154.5 -35q104 0 159 33t55 115q0 150 -214 150q-102 0 -158.5 -41t-56.5 -109zM539 485 q0 -104 28.5 -183t81.5 -79t80 78t27 184t-27 187.5t-78 81.5q-35 0 -61.5 -41t-38.5 -100.5t-12 -127.5zM700 1236q0 -78 60.5 -113t154.5 -35q104 0 159 33t55 115q0 150 -214 150q-102 0 -158.5 -41t-56.5 -109z" />
<glyph unicode="&#xf7;" horiz-adv-x="913" d="M8 483q0 152 158 152h581q88 0 123 -36t35 -124q0 -76 -42 -105.5t-134 -29.5h-555q-166 0 -166 143zM262 127q0 -74 57.5 -107t144.5 -33q99 0 150 31.5t51 108.5q0 141 -201 141q-95 0 -148.5 -39t-53.5 -102zM262 854q0 -74 57.5 -107t144.5 -33q99 0 150 31.5 t51 108.5q0 141 -201 141q-95 0 -148.5 -39t-53.5 -102z" />
<glyph unicode="&#xf8;" horiz-adv-x="1292" d="M80 483q0 233 159.5 370.5t409.5 137.5t407.5 -137t157.5 -371q0 -231 -160.5 -364t-404.5 -133q-160 0 -288 57t-204.5 172t-76.5 268zM104 47q0 25 10.5 41t35.5 39l405 362l172 168l295 295q51 51 94 52q37 0 62.5 -21.5t25.5 -54.5q0 -43 -65 -103l-387 -340 l-164 -157l-309 -316q-45 -49 -91 -49q-31 0 -57.5 27.5t-26.5 56.5zM539 485q0 -104 28.5 -183t81.5 -79q29 0 49.5 22.5t32.5 60.5t18.5 84t6.5 95q0 106 -27 187.5t-78 81.5q-53 0 -82.5 -82t-29.5 -187z" />
<glyph unicode="&#xf9;" horiz-adv-x="1280" d="M92 489q0 129 6 210t19.5 139.5t41 87t65.5 41t100 12.5q115 0 165 -43t50 -129l2 -375q0 -117 90 -117q31 0 54.5 19.5t35.5 54.5t12 80v274q0 70 24.5 122.5t72 81t110.5 28.5q111 0 172.5 -48t61.5 -177v-533q0 -125 -51.5 -172t-180.5 -47q-55 0 -94 11t-62.5 34 t-35.5 59q-84 -55 -177.5 -77.5t-207.5 -22.5q-145 0 -209 113.5t-64 373.5zM279 1371q0 -102 127 -152l250 -84q51 -16 94 -16q61 0 99 35.5t38 87.5q0 35 -17.5 64.5t-35 43.5t-51.5 37q-6 4 -11 8l-235 148q-45 27 -99 26q-72 0 -115.5 -63.5t-43.5 -134.5z" />
<glyph unicode="&#xfa;" horiz-adv-x="1280" d="M92 489q0 129 6 210t19.5 139.5t41 87t65.5 41t100 12.5q115 0 165 -43t50 -129l2 -375q0 -117 90 -117q31 0 54.5 19.5t35.5 54.5t12 80v274q0 70 24.5 122.5t72 81t110.5 28.5q111 0 172.5 -48t61.5 -177v-533q0 -125 -51.5 -172t-180.5 -47q-55 0 -94 11t-62.5 34 t-35.5 59q-84 -55 -177.5 -77.5t-207.5 -22.5q-145 0 -209 113.5t-64 373.5zM398 1242q0 74 82 131l32 22l236 148q45 27 98 26q72 0 116 -63.5t44 -134.5q0 -102 -127 -152l-250 -84q-51 -16 -94 -16q-41 0 -73 16t-48 44t-16 63z" />
<glyph unicode="&#xfb;" horiz-adv-x="1280" d="M92 489q0 129 6 210t19.5 139.5t41 87t65.5 41t100 12.5q115 0 165 -43t50 -129l2 -375q0 -117 90 -117q31 0 54.5 19.5t35.5 54.5t12 80v274q0 70 24.5 122.5t72 81t110.5 28.5q111 0 172.5 -48t61.5 -177v-533q0 -125 -51.5 -172t-180.5 -47q-55 0 -94 11t-62.5 34 t-35.5 59q-84 -55 -177.5 -77.5t-207.5 -22.5q-145 0 -209 113.5t-64 373.5zM264 1268q0 12 2 24t8 25q6 12 12 21q5 9 15 22q10 12 15 19t18 21q12 13 16 19q141 164 297 164q66 0 125 -27t87 -50t73 -68q104 -104 104 -170q0 -57 -46 -100q-46 -42 -101 -42q-49 0 -111 62 q-8 10 -18 21t-18 19l-15 15t-13 14t-13 13q-7 6 -12 9t-10 7t-9 6t-10 3q-5 1 -11 1q-12 0 -27 -10t-26 -20q-10 -10 -32 -34t-34 -38q-61 -63 -118 -64q-59 0 -104 40q-44 40 -44 98z" />
<glyph unicode="&#xfc;" horiz-adv-x="1280" d="M92 489q0 129 6 210t19.5 139.5t41 87t65.5 41t100 12.5q115 0 165 -43t50 -129l2 -375q0 -117 90 -117q31 0 54.5 19.5t35.5 54.5t12 80v274q0 70 24.5 122.5t72 81t110.5 28.5q111 0 172.5 -48t61.5 -177v-533q0 -125 -51.5 -172t-180.5 -47q-55 0 -94 11t-62.5 34 t-35.5 59q-84 -55 -177.5 -77.5t-207.5 -22.5q-145 0 -209 113.5t-64 373.5zM195 1236q0 -78 60.5 -113t154.5 -35q104 0 159 33t55 115q0 150 -214 150q-102 0 -158.5 -41t-56.5 -109zM688 1236q0 -78 60.5 -113t154.5 -35q104 0 159 33t55 115q0 150 -214 150 q-102 0 -158.5 -41t-56.5 -109z" />
<glyph unicode="&#xfd;" horiz-adv-x="1243" d="M92 440q0 115 3 195t13.5 142.5t23.5 99t38 60.5t55.5 32t73.5 8q129 0 181 -44t52 -138l3 -330v-48.5t3 -38t8 -32.5t14 -21.5t24.5 -15.5t38.5 -4q61 0 76.5 34t15.5 124l2 332q0 63 21.5 102t72.5 59.5t139 20.5q53 0 91 -17.5t60.5 -45t34 -82t15.5 -109.5t4 -145 q0 -350 -20 -490q-16 -125 -51 -216t-98.5 -161.5t-162 -105.5t-233.5 -35q-109 0 -202 31.5t-147.5 78t-85 91.5t-30.5 77.5t21.5 60.5t58.5 28q27 0 62.5 -16.5t68.5 -37t78 -37t88 -16.5q111 0 157 55.5t46 157.5q-35 -14 -68 -24.5t-63.5 -16.5t-58.5 -8t-54 -2 q-121 0 -207 67.5t-124 167t-38 213.5zM414 1242q0 74 82 131l32 22l236 148q45 27 98 26q72 0 116 -63.5t44 -134.5q0 -102 -127 -152l-250 -84q-51 -16 -94 -16q-41 0 -73 16t-48 44t-16 63z" />
<glyph unicode="&#xfe;" horiz-adv-x="1331" d="M123 -115v1329q0 246 231 246q119 0 179.5 -45t60.5 -182v-1331q0 -160 -59.5 -234t-180.5 -74q-119 0 -175 65t-56 226zM346 500q0 72 39 156.5t105.5 159.5t165 125t204.5 50q164 0 269.5 -138t105.5 -372q0 -229 -106.5 -361t-268.5 -132q-223 0 -368.5 136 t-145.5 376zM539 481q0 -98 33.5 -169.5t101.5 -71.5q55 0 86 73.5t31 167.5q0 100 -33 178t-86 78q-66 0 -99.5 -76t-33.5 -180z" />
<glyph unicode="&#xff;" horiz-adv-x="1243" d="M92 440q0 115 3 195t13.5 142.5t23.5 99t38 60.5t55.5 32t73.5 8q129 0 181 -44t52 -138l3 -330v-48.5t3 -38t8 -32.5t14 -21.5t24.5 -15.5t38.5 -4q61 0 76.5 34t15.5 124l2 332q0 63 21.5 102t72.5 59.5t139 20.5q53 0 91 -17.5t60.5 -45t34 -82t15.5 -109.5t4 -145 q0 -350 -20 -490q-16 -125 -51 -216t-98.5 -161.5t-162 -105.5t-233.5 -35q-109 0 -202 31.5t-147.5 78t-85 91.5t-30.5 77.5t21.5 60.5t58.5 28q27 0 62.5 -16.5t68.5 -37t78 -37t88 -16.5q111 0 157 55.5t46 157.5q-35 -14 -68 -24.5t-63.5 -16.5t-58.5 -8t-54 -2 q-121 0 -207 67.5t-124 167t-38 213.5zM176 1236q0 -78 60.5 -113t154.5 -35q104 0 159 33t55 115q0 150 -214 150q-102 0 -158.5 -41t-56.5 -109zM669 1236q0 -78 60.5 -113t154.5 -35q104 0 159 33t55 115q0 150 -214 150q-102 0 -158.5 -41t-56.5 -109z" />
<glyph unicode="&#x152;" horiz-adv-x="2707" d="M202 692q0 332 200 527.5t517.5 195.5t518 -195.5t200.5 -527.5q0 -219 -97 -380.5t-259 -242.5t-364 -81t-362.5 81t-257 242.5t-96.5 380.5zM706 692q0 -102 23.5 -192t73.5 -151.5t116 -61.5q70 0 120 61.5t71.5 151.5t21.5 192q0 104 -22.5 197.5t-72.5 159 t-118 65.5q-66 0 -115 -65.5t-73.5 -159.5t-24.5 -197zM1419 293v864q0 246 234 246h663q119 0 177.5 -37t58.5 -133q0 -90 -50 -126t-165 -36h-447v-240h353q109 0 152.5 -34.5t43.5 -118.5q0 -70 -52 -99.5t-163 -29.5h-332v-217l445 -2q115 0 165 -34t50 -120 q0 -98 -58.5 -137t-177.5 -39h-663q-121 0 -177.5 64.5t-56.5 228.5z" />
<glyph unicode="&#x153;" horiz-adv-x="2021" d="M72 483q0 233 159.5 370.5t409.5 137.5t407.5 -137t157.5 -371q0 -231 -160.5 -364t-404.5 -133q-160 0 -288 57t-204.5 172t-76.5 268zM531 485q0 -104 28.5 -183t81.5 -79t80 78t27 184t-27 187.5t-78 81.5q-35 0 -61.5 -41t-38.5 -100.5t-12 -127.5zM891 469 q0 242 160.5 382t414.5 140q240 0 351.5 -85t111.5 -232q0 -29 -7 -55.5t-22.5 -52t-41 -47t-58.5 -39t-78 -27t-96 -9.5l-289 -2q20 -66 73.5 -103.5t135.5 -37.5q88 0 180 23q39 10 85.5 32.5t66.5 22.5q35 0 54.5 -20.5t19.5 -51.5q0 -37 -33 -89t-91.5 -104.5 t-154.5 -89t-207 -36.5q-250 0 -412.5 129t-162.5 352zM1327 573q141 2 154 2q31 0 45 37q10 27 10 74q0 129 -78 129q-29 0 -56.5 -30.5t-48 -87t-26.5 -124.5z" />
<glyph unicode="&#x178;" horiz-adv-x="1456" d="M86 1163q0 113 86 178q82 61 145 62q88 0 158 -80l250 -291l209 244q104 125 223 125q88 0 137 -49q84 -84 84 -162q0 -43 -28.5 -91t-92.5 -124l-294 -361v-307q0 -166 -59.5 -236.5t-182.5 -70.5q-119 0 -174 64.5t-58 228.5l-2 332l-315 368q-86 98 -86 170zM276 1686 q0 -78 60.5 -114t152.5 -36q106 0 160.5 33t54.5 117q0 150 -215 149q-102 0 -157.5 -41.5t-55.5 -107.5zM770 1686q0 -78 60 -114t153 -36q70 0 113.5 12.5t72.5 46t29 91.5q0 150 -215 149q-68 0 -117 -19.5t-72.5 -53t-23.5 -76.5z" />
<glyph unicode="&#x2c6;" horiz-adv-x="983" d="M104 1479q0 12 2.5 24.5t8.5 24.5t11 21.5t15.5 21.5t15.5 19t17 20.5t16 19.5q141 164 297 164q66 0 125.5 -26.5t87 -50t72.5 -68.5q104 -104 105 -170q0 -57 -46.5 -99.5t-101.5 -42.5q-49 0 -111 62q-8 10 -18 21.5t-17.5 18.5t-15.5 15t-13 14.5t-12 12.5t-12.5 9 t-10.5 7t-9 6t-9 3t-12 1q-12 0 -27.5 -10t-25.5 -20.5t-31.5 -34t-33.5 -37.5q-61 -63 -119 -64q-59 0 -103.5 40t-44.5 98z" />
<glyph unicode="&#x2dc;" horiz-adv-x="972" d="M84 1163q0 86 50 151.5t138 65.5q76 0 159 -29.5t128 -60.5l45 -30q0 51 41 85.5t103 34.5q82 0 110.5 -40t28.5 -119q0 -86 -50.5 -154t-138.5 -68q-74 0 -139 31t-113 60.5t-79 29.5q0 -51 -42 -86t-102 -35q-82 0 -110.5 41t-28.5 123z" />
<glyph unicode="&#x2000;" horiz-adv-x="1041" />
<glyph unicode="&#x2001;" horiz-adv-x="2083" />
<glyph unicode="&#x2002;" horiz-adv-x="1041" />
<glyph unicode="&#x2003;" horiz-adv-x="2083" />
<glyph unicode="&#x2004;" horiz-adv-x="694" />
<glyph unicode="&#x2005;" horiz-adv-x="520" />
<glyph unicode="&#x2006;" horiz-adv-x="347" />
<glyph unicode="&#x2007;" horiz-adv-x="347" />
<glyph unicode="&#x2008;" horiz-adv-x="260" />
<glyph unicode="&#x2009;" horiz-adv-x="416" />
<glyph unicode="&#x200a;" horiz-adv-x="115" />
<glyph unicode="&#x2010;" horiz-adv-x="804" d="M72 557q0 152 180 152h285q74 0 116.5 -15.5t61 -50.5t18.5 -94q0 -76 -51 -105.5t-164 -29.5h-280q-166 0 -166 143z" />
<glyph unicode="&#x2011;" horiz-adv-x="804" d="M72 557q0 152 180 152h285q74 0 116.5 -15.5t61 -50.5t18.5 -94q0 -76 -51 -105.5t-164 -29.5h-280q-166 0 -166 143z" />
<glyph unicode="&#x2012;" horiz-adv-x="804" d="M72 557q0 152 180 152h285q74 0 116.5 -15.5t61 -50.5t18.5 -94q0 -76 -51 -105.5t-164 -29.5h-280q-166 0 -166 143z" />
<glyph unicode="&#x2013;" horiz-adv-x="1331" d="M125 557q0 152 178 152h705q74 0 116.5 -15.5t61 -50.5t18.5 -94q0 -51 -23.5 -81t-69.5 -42t-122 -12h-698q-166 0 -166 143z" />
<glyph unicode="&#x2014;" horiz-adv-x="1685" d="M80 557q0 152 178 152h1145q111 0 153.5 -36t42.5 -124q0 -76 -51 -105.5t-164 -29.5h-1138q-166 0 -166 143z" />
<glyph unicode="&#x2018;" horiz-adv-x="655" d="M72 967q0 -104 69.5 -150.5t180.5 -46.5q106 0 163.5 44t57.5 112q0 82 -62.5 118.5t-158.5 36.5q33 55 75.5 87t134.5 77q31 14 31 58q0 35 -21.5 55t-58.5 20q-39 0 -90 -15t-107.5 -50t-104.5 -82t-78.5 -117t-30.5 -147z" />
<glyph unicode="&#x2019;" horiz-adv-x="675" d="M88 846q0 -33 21.5 -54.5t58.5 -21.5q39 0 90 16.5t107.5 51t104.5 82t79 117t31 147.5q0 104 -70 149t-180 45q-106 0 -163.5 -42.5t-57.5 -112.5q0 -80 62 -118t159 -38q-33 -53 -76 -85t-135 -77q-31 -14 -31 -59z" />
<glyph unicode="&#x201a;" horiz-adv-x="677" d="M88 -236q0 -33 21.5 -54t56.5 -21q39 0 91 16t108.5 50t103.5 81t79 117t32 147q0 106 -70 151.5t-180 45.5q-72 0 -123 -20.5t-76 -55.5t-25 -80q0 -82 63.5 -118.5t160.5 -36.5q-35 -53 -78 -86t-135 -78q-29 -14 -29 -58z" />
<glyph unicode="&#x201c;" horiz-adv-x="1230" d="M82 967q0 -55 20.5 -94t56.5 -60.5t79 -32t94 -10.5q106 0 163.5 44t57.5 112q0 82 -62.5 118.5t-158.5 36.5q33 55 76 87t135 77q31 14 30 58q0 35 -21.5 55t-57.5 20q-39 0 -90.5 -15t-107.5 -50t-104.5 -82t-79 -117t-30.5 -147zM653 967q0 -104 71 -150.5t179 -46.5 q106 0 164.5 44t58.5 112q0 82 -63.5 118.5t-159.5 36.5q25 37 51.5 63.5t62.5 48t99 52.5q29 14 29 58q0 23 -9.5 40t-27.5 26t-41 9q-39 0 -91 -15t-108.5 -50t-103.5 -82t-79 -117t-32 -147z" />
<glyph unicode="&#x201d;" horiz-adv-x="1247" d="M86 846q0 -33 21.5 -54.5t56.5 -21.5q39 0 91 16.5t108.5 51t103.5 82t79 117t32 147.5q0 104 -71 149t-179 45q-106 0 -165 -42.5t-59 -112.5q0 -80 63.5 -118t160.5 -38q-18 -27 -36 -47.5t-44.5 -39.5t-55 -35.5t-77.5 -39.5q-29 -14 -29 -59zM657 846 q0 -33 21.5 -54.5t58.5 -21.5q39 0 90.5 16.5t107.5 51t104 82t79 117t31 147.5q0 104 -69.5 149t-180.5 45q-106 0 -163.5 -42.5t-57.5 -112.5q0 -80 62.5 -118t158.5 -38q-23 -37 -50.5 -62.5t-62 -47t-98.5 -52.5q-31 -14 -31 -59z" />
<glyph unicode="&#x201e;" horiz-adv-x="1230" d="M74 -236q0 -20 9 -37.5t27.5 -27.5t41.5 -10q39 0 90 16t108.5 51t104.5 82t77.5 117t30.5 147q0 104 -69.5 149.5t-178.5 45.5q-106 0 -164.5 -43t-58.5 -111q0 -57 33 -93t81 -50t109 -14q-35 -53 -77.5 -85t-135.5 -77q-29 -14 -28 -60zM645 -236q0 -33 21.5 -54 t58.5 -21q39 0 90 16t107.5 51t104.5 82t79 117t31 147q0 104 -70 149.5t-180 45.5q-106 0 -163.5 -43t-57.5 -111q0 -82 62.5 -119.5t158.5 -37.5q-35 -53 -77 -85t-134 -77q-31 -14 -31 -60z" />
<glyph unicode="&#x2022;" horiz-adv-x="673" d="M90 500q0 -109 68.5 -158t175.5 -49q119 0 180 48t61 169q0 205 -245 205q-115 0 -177.5 -59.5t-62.5 -155.5z" />
<glyph unicode="&#x2026;" horiz-adv-x="1740" d="M104 141q0 -82 63.5 -118.5t160.5 -36.5q109 0 166 34.5t57 120.5q0 156 -223 156q-106 0 -165 -43t-59 -113zM653 141q0 -82 63.5 -118.5t160.5 -36.5q109 0 166 34.5t57 120.5q0 156 -223 156q-106 0 -165 -43t-59 -113zM1220 141q0 -82 63.5 -118.5t160.5 -36.5 q109 0 166 34.5t57 120.5q0 156 -223 156q-106 0 -165 -43t-59 -113z" />
<glyph unicode="&#x202f;" horiz-adv-x="416" />
<glyph unicode="&#x2039;" horiz-adv-x="913" d="M82 481q0 96 72 152l356 291q109 84 197 84q43 0 88 -47.5t45 -106.5q0 -27 -13.5 -51.5t-40 -51t-75.5 -63.5l-244 -201l250 -190q82 -57 104.5 -94t22.5 -84q0 -59 -45 -106.5t-90 -47.5q-64 0 -134 49l-415 310q-78 55 -78 157z" />
<glyph unicode="&#x203a;" horiz-adv-x="913" d="M70 119q0 -59 45 -106.5t90 -47.5q63 0 133 49l416 310q78 55 77 157q0 96 -71 152l-357 291q-109 84 -196 84q-43 0 -88 -47.5t-45 -106.5q0 -39 28.5 -75t100.5 -91l243 -201l-249 -190q-82 -57 -104.5 -94t-22.5 -84z" />
<glyph unicode="&#x205f;" horiz-adv-x="520" />
<glyph unicode="&#x20ac;" horiz-adv-x="1701" d="M82 592q0 -100 137 -100h82q74 -229 263.5 -362.5t441.5 -133.5q143 0 267 40t196.5 96t113.5 111.5t41 96.5q0 39 -32.5 75t-78.5 36q-39 0 -95 -19.5t-134 -39t-168 -19.5q-147 0 -237 119h225q53 0 83 8t45 31.5t15 64.5q0 57 -32.5 80.5t-110.5 23.5h-303v117h303 q53 0 83 8.5t45 31t15 65.5q0 57 -32.5 80.5t-110.5 23.5h-230q88 125 242 125q90 0 168 -18.5t134.5 -38t94.5 -19.5q45 0 78 35t33 76q0 20 -12.5 49t-39 61.5t-63 64.5t-90 61.5t-114 53t-138 37t-161.5 13.5q-254 0 -444.5 -134.5t-264.5 -365.5h-78q-55 0 -86 -15.5 t-41 -38t-10 -54.5q0 -100 137 -101h41v-117h-41q-80 0 -108.5 -28.5t-28.5 -79.5z" />
<glyph unicode="&#x2122;" horiz-adv-x="1343" d="M0 1493q0 -49 29.5 -68.5t91.5 -19.5h115v-485q0 -184 241 -185q96 0 164 53.5t68 143.5v170l73 -98q41 -57 72 -80t70 -23q20 0 37.5 8.5t37 28.5t43.5 55l74 109v-150q0 -100 107 -100q117 0 116 96v262q0 147 -153 148q-82 0 -129 -70q-33 -47 -62.5 -85t-42.5 -52 l-12 -14q-51 63 -115 155q-14 20 -24 31.5t-35 23t-57 11.5q-84 0 -119 -37t-35 -113v-286q0 -25 -6 -39.5t-16.5 -19.5t-26.5 -5q-49 0 -49 64v483h127q57 0 83.5 17.5t26.5 62.5q0 49 -23.5 67.5t-76.5 18.5h-481q-61 0 -87 -17.5t-26 -60.5z" />
<glyph unicode="&#x25fc;" horiz-adv-x="972" d="M0 0v973h973v-973h-973z" />
<glyph unicode="&#xfb01;" horiz-adv-x="1409" d="M49 784q0 121 154 129q2 256 122.5 373t411.5 117q129 0 228.5 -28.5t156 -74t85 -95.5t28.5 -101q0 -55 -37 -90t-98 -35q-53 0 -87 16.5t-48.5 40t-27.5 48t-41 41t-73 16.5q-178 0 -178 -226l459 3q43 0 74.5 -5.5t63.5 -20.5t51.5 -40t31.5 -64.5t12 -95.5v-473 q0 -123 -51 -171t-180 -48q-121 0 -165 57.5t-44 184.5v426l-252 -2v-359q0 -174 -54 -240.5t-171 -66.5q-115 0 -168 64.5t-53 228.5l2 373q-55 2 -89 16t-48.5 40t-14.5 62z" />
<glyph unicode="&#xfb02;" horiz-adv-x="1501" d="M66 784q0 121 153 129q2 246 125 368t352 122q184 0 326 -60q59 59 164 60q113 0 169 -45t56 -182v-867q0 -309 -225 -309q-115 0 -168 64.5t-53 228.5l-4 758q-14 20 -24.5 30.5t-36.5 20.5t-62 10q-96 0 -136 -47.5t-40 -149.5q123 0 171 -25.5t48 -111.5 q0 -70 -51.5 -91t-167.5 -21v-359q0 -174 -54.5 -240.5t-171.5 -66.5q-115 0 -168 64.5t-53 228.5l2 373q-55 2 -89 16t-48 40t-14 62z" />
<glyph unicode="&#xfb03;" horiz-adv-x="2600" d="M371 784q0 -57 34.5 -86.5t116.5 -31.5l-2 -373q0 -164 53.5 -228.5t167.5 -64.5q117 0 171.5 66.5t54.5 240.5v359h211v-373q0 -113 25.5 -177.5t71.5 -90t122 -25.5q117 0 171 66.5t54 240.5v359l252 2v-426q0 -127 44 -184.5t165 -57.5q129 0 180 48t51 171v473 q0 68 -17.5 114t-51 69.5t-72.5 33t-92 9.5l-459 -3q0 225 178 226q39 0 64.5 -12.5t37 -30t24.5 -39t27.5 -38.5t46.5 -29.5t77 -12.5q31 0 55.5 9t41.5 25.5t27.5 39t10.5 51.5q0 51 -30 103.5t-88 99.5t-160.5 77.5t-229.5 30.5q-207 0 -313.5 -46t-157.5 -120 q-35 63 -122 108.5t-220 45.5q-90 0 -153.5 -19.5t-104.5 -56.5t-64.5 -98.5t-34 -135t-10.5 -180.5q-154 -8 -153 -129zM967 915q0 127 43 162q49 41 186 41q-14 -80 -14 -205z" />
<glyph unicode="&#xfb04;" horiz-adv-x="2379" d="M283 784q0 121 151 129q2 133 17.5 219.5t55.5 150t111.5 92t182.5 28.5q137 0 244.5 -47t140.5 -107q39 51 100.5 86t133 51.5t151.5 16.5q186 0 327 -60q57 59 164 60q53 0 89 -8.5t69 -31t49.5 -69.5t16.5 -118v-867q0 -309 -224 -309q-117 0 -169 64.5t-54 228.5 l-2 758q0 61 -125 61q-94 0 -135 -47t-41 -150q123 0 172 -25.5t49 -111.5q0 -49 -28.5 -74.5t-71.5 -31.5t-119 -6v-359q0 -174 -54 -240.5t-175 -66.5q-115 0 -168.5 64.5t-53.5 228.5v373h-208v-359q0 -174 -54.5 -240.5t-171.5 -66.5q-113 0 -167 70.5t-54 222.5v373 q-82 2 -115.5 31.5t-33.5 86.5zM877 915l213 -2q2 125 14 205q-135 0 -184 -41q-43 -35 -43 -162z" />
</font>
</defs>
</svg>
